<svg xmlns="http://www.w3.org/2000/svg" xmlns:xlink="http://www.w3.org/1999/xlink" width="500" zoomAndPan="magnify" viewBox="0 0 375 374.999991" height="500" preserveAspectRatio="xMidYMid meet" version="1.0"><defs><clipPath id="9a077ad318"><path d="M 187.511719 367.488281 C 88.113281 367.488281 7.53125 286.910156 7.53125 187.511719 C 7.53125 88.113281 88.113281 7.53125 187.511719 7.53125 C 286.910156 7.53125 367.488281 88.113281 367.488281 187.511719 C 367.488281 286.910156 286.910156 367.488281 187.511719 367.488281 Z M 187.511719 0 C 83.953125 0 0 83.953125 0 187.511719 C 0 291.070312 83.953125 375.019531 187.511719 375.019531 C 291.070312 375.019531 375.019531 291.070312 375.019531 187.511719 C 375.019531 83.953125 291.070312 0 187.511719 0 Z M 187.511719 0 " clip-rule="nonzero"/></clipPath><linearGradient x1="517.677627" gradientTransform="matrix(0.613447, 0, 0, 0.613447, 0.0000045, 0)" y1="666.334008" x2="93.632752" gradientUnits="userSpaceOnUse" y2="-55.040081" id="53e2c309b0"><stop stop-opacity="1" stop-color="rgb(49.391174%, 25.164795%, 60.27832%)" offset="0"/><stop stop-opacity="1" stop-color="rgb(49.253845%, 25.346375%, 60.35614%)" offset="0.0078125"/><stop stop-opacity="1" stop-color="rgb(48.982239%, 25.709534%, 60.51178%)" offset="0.015625"/><stop stop-opacity="1" stop-color="rgb(48.709106%, 26.071167%, 60.668945%)" offset="0.0234375"/><stop stop-opacity="1" stop-color="rgb(48.435974%, 26.434326%, 60.824585%)" offset="0.03125"/><stop stop-opacity="1" stop-color="rgb(48.164368%, 26.797485%, 60.980225%)" offset="0.0390625"/><stop stop-opacity="1" stop-color="rgb(47.891235%, 27.160645%, 61.135864%)" offset="0.046875"/><stop stop-opacity="1" stop-color="rgb(47.618103%, 27.523804%, 61.29303%)" offset="0.0546875"/><stop stop-opacity="1" stop-color="rgb(47.344971%, 27.886963%, 61.448669%)" offset="0.0625"/><stop stop-opacity="1" stop-color="rgb(47.073364%, 28.250122%, 61.604309%)" offset="0.0703125"/><stop stop-opacity="1" stop-color="rgb(46.800232%, 28.613281%, 61.759949%)" offset="0.078125"/><stop stop-opacity="1" stop-color="rgb(46.5271%, 28.97644%, 61.915588%)" offset="0.0859375"/><stop stop-opacity="1" stop-color="rgb(46.255493%, 29.338074%, 62.072754%)" offset="0.09375"/><stop stop-opacity="1" stop-color="rgb(45.982361%, 29.701233%, 62.228394%)" offset="0.101562"/><stop stop-opacity="1" stop-color="rgb(45.709229%, 30.064392%, 62.384033%)" offset="0.109375"/><stop stop-opacity="1" stop-color="rgb(45.437622%, 30.427551%, 62.539673%)" offset="0.117188"/><stop stop-opacity="1" stop-color="rgb(45.16449%, 30.79071%, 62.695312%)" offset="0.125"/><stop stop-opacity="1" stop-color="rgb(44.891357%, 31.15387%, 62.852478%)" offset="0.132812"/><stop stop-opacity="1" stop-color="rgb(44.619751%, 31.517029%, 63.008118%)" offset="0.140625"/><stop stop-opacity="1" stop-color="rgb(44.346619%, 31.880188%, 63.163757%)" offset="0.148437"/><stop stop-opacity="1" stop-color="rgb(44.073486%, 32.243347%, 63.319397%)" offset="0.15625"/><stop stop-opacity="1" stop-color="rgb(43.800354%, 32.60498%, 63.476562%)" offset="0.164063"/><stop stop-opacity="1" stop-color="rgb(43.528748%, 32.96814%, 63.632202%)" offset="0.171875"/><stop stop-opacity="1" stop-color="rgb(43.255615%, 33.331299%, 63.787842%)" offset="0.179688"/><stop stop-opacity="1" stop-color="rgb(42.982483%, 33.694458%, 63.943481%)" offset="0.1875"/><stop stop-opacity="1" stop-color="rgb(42.710876%, 34.057617%, 64.099121%)" offset="0.195313"/><stop stop-opacity="1" stop-color="rgb(42.437744%, 34.420776%, 64.256287%)" offset="0.203125"/><stop stop-opacity="1" stop-color="rgb(42.164612%, 34.783936%, 64.411926%)" offset="0.210937"/><stop stop-opacity="1" stop-color="rgb(41.893005%, 35.147095%, 64.567566%)" offset="0.21875"/><stop stop-opacity="1" stop-color="rgb(41.619873%, 35.510254%, 64.723206%)" offset="0.226562"/><stop stop-opacity="1" stop-color="rgb(41.346741%, 35.871887%, 64.878845%)" offset="0.234375"/><stop stop-opacity="1" stop-color="rgb(41.075134%, 36.235046%, 65.036011%)" offset="0.242188"/><stop stop-opacity="1" stop-color="rgb(40.802002%, 36.598206%, 65.19165%)" offset="0.25"/><stop stop-opacity="1" stop-color="rgb(40.52887%, 36.961365%, 65.34729%)" offset="0.257812"/><stop stop-opacity="1" stop-color="rgb(40.257263%, 37.324524%, 65.50293%)" offset="0.265625"/><stop stop-opacity="1" stop-color="rgb(39.984131%, 37.687683%, 65.660095%)" offset="0.273438"/><stop stop-opacity="1" stop-color="rgb(39.710999%, 38.050842%, 65.815735%)" offset="0.28125"/><stop stop-opacity="1" stop-color="rgb(39.437866%, 38.414001%, 65.971375%)" offset="0.289063"/><stop stop-opacity="1" stop-color="rgb(39.16626%, 38.777161%, 66.127014%)" offset="0.296875"/><stop stop-opacity="1" stop-color="rgb(38.893127%, 39.138794%, 66.282654%)" offset="0.304687"/><stop stop-opacity="1" stop-color="rgb(38.619995%, 39.501953%, 66.439819%)" offset="0.3125"/><stop stop-opacity="1" stop-color="rgb(38.348389%, 39.865112%, 66.595459%)" offset="0.320312"/><stop stop-opacity="1" stop-color="rgb(38.075256%, 40.228271%, 66.751099%)" offset="0.328125"/><stop stop-opacity="1" stop-color="rgb(37.802124%, 40.591431%, 66.906738%)" offset="0.335938"/><stop stop-opacity="1" stop-color="rgb(37.530518%, 40.95459%, 67.062378%)" offset="0.34375"/><stop stop-opacity="1" stop-color="rgb(37.257385%, 41.317749%, 67.219543%)" offset="0.351562"/><stop stop-opacity="1" stop-color="rgb(36.984253%, 41.680908%, 67.375183%)" offset="0.359375"/><stop stop-opacity="1" stop-color="rgb(36.712646%, 42.042542%, 67.530823%)" offset="0.367187"/><stop stop-opacity="1" stop-color="rgb(36.439514%, 42.405701%, 67.686462%)" offset="0.370209"/><stop stop-opacity="1" stop-color="rgb(36.303711%, 42.58728%, 67.765808%)" offset="0.375"/><stop stop-opacity="1" stop-color="rgb(36.166382%, 42.76886%, 67.843628%)" offset="0.382812"/><stop stop-opacity="1" stop-color="rgb(35.89325%, 43.132019%, 67.999268%)" offset="0.390625"/><stop stop-opacity="1" stop-color="rgb(35.621643%, 43.495178%, 68.154907%)" offset="0.398438"/><stop stop-opacity="1" stop-color="rgb(35.348511%, 43.858337%, 68.310547%)" offset="0.40625"/><stop stop-opacity="1" stop-color="rgb(35.075378%, 44.221497%, 68.466187%)" offset="0.414062"/><stop stop-opacity="1" stop-color="rgb(34.803772%, 44.584656%, 68.623352%)" offset="0.421875"/><stop stop-opacity="1" stop-color="rgb(34.53064%, 44.947815%, 68.778992%)" offset="0.429688"/><stop stop-opacity="1" stop-color="rgb(34.257507%, 45.309448%, 68.934631%)" offset="0.4375"/><stop stop-opacity="1" stop-color="rgb(33.985901%, 45.672607%, 69.090271%)" offset="0.445313"/><stop stop-opacity="1" stop-color="rgb(33.712769%, 46.035767%, 69.245911%)" offset="0.453125"/><stop stop-opacity="1" stop-color="rgb(33.439636%, 46.398926%, 69.403076%)" offset="0.460937"/><stop stop-opacity="1" stop-color="rgb(33.16803%, 46.762085%, 69.558716%)" offset="0.46875"/><stop stop-opacity="1" stop-color="rgb(32.894897%, 47.125244%, 69.714355%)" offset="0.476562"/><stop stop-opacity="1" stop-color="rgb(32.621765%, 47.488403%, 69.869995%)" offset="0.484375"/><stop stop-opacity="1" stop-color="rgb(32.348633%, 47.851562%, 70.027161%)" offset="0.492188"/><stop stop-opacity="1" stop-color="rgb(32.077026%, 48.214722%, 70.1828%)" offset="0.5"/><stop stop-opacity="1" stop-color="rgb(31.803894%, 48.576355%, 70.33844%)" offset="0.507812"/><stop stop-opacity="1" stop-color="rgb(31.530762%, 48.939514%, 70.49408%)" offset="0.515625"/><stop stop-opacity="1" stop-color="rgb(31.259155%, 49.302673%, 70.649719%)" offset="0.523438"/><stop stop-opacity="1" stop-color="rgb(30.986023%, 49.665833%, 70.806885%)" offset="0.53125"/><stop stop-opacity="1" stop-color="rgb(30.712891%, 50.028992%, 70.962524%)" offset="0.539062"/><stop stop-opacity="1" stop-color="rgb(30.441284%, 50.392151%, 71.118164%)" offset="0.546875"/><stop stop-opacity="1" stop-color="rgb(30.168152%, 50.75531%, 71.273804%)" offset="0.554688"/><stop stop-opacity="1" stop-color="rgb(29.89502%, 51.118469%, 71.429443%)" offset="0.5625"/><stop stop-opacity="1" stop-color="rgb(29.623413%, 51.481628%, 71.586609%)" offset="0.570312"/><stop stop-opacity="1" stop-color="rgb(29.350281%, 51.843262%, 71.742249%)" offset="0.578125"/><stop stop-opacity="1" stop-color="rgb(29.077148%, 52.206421%, 71.897888%)" offset="0.585937"/><stop stop-opacity="1" stop-color="rgb(28.804016%, 52.56958%, 72.053528%)" offset="0.59375"/><stop stop-opacity="1" stop-color="rgb(28.53241%, 52.932739%, 72.210693%)" offset="0.601562"/><stop stop-opacity="1" stop-color="rgb(28.259277%, 53.295898%, 72.366333%)" offset="0.609375"/><stop stop-opacity="1" stop-color="rgb(27.986145%, 53.659058%, 72.521973%)" offset="0.617188"/><stop stop-opacity="1" stop-color="rgb(27.714539%, 54.022217%, 72.677612%)" offset="0.625"/><stop stop-opacity="1" stop-color="rgb(27.441406%, 54.385376%, 72.833252%)" offset="0.629791"/><stop stop-opacity="1" stop-color="rgb(27.305603%, 54.566956%, 72.912598%)" offset="0.632812"/><stop stop-opacity="1" stop-color="rgb(27.168274%, 54.748535%, 72.990417%)" offset="0.640625"/><stop stop-opacity="1" stop-color="rgb(26.896667%, 55.110168%, 73.146057%)" offset="0.648438"/><stop stop-opacity="1" stop-color="rgb(26.623535%, 55.473328%, 73.301697%)" offset="0.65625"/><stop stop-opacity="1" stop-color="rgb(26.350403%, 55.836487%, 73.457336%)" offset="0.664062"/><stop stop-opacity="1" stop-color="rgb(26.078796%, 56.199646%, 73.612976%)" offset="0.671875"/><stop stop-opacity="1" stop-color="rgb(25.805664%, 56.562805%, 73.770142%)" offset="0.679687"/><stop stop-opacity="1" stop-color="rgb(25.532532%, 56.925964%, 73.925781%)" offset="0.6875"/><stop stop-opacity="1" stop-color="rgb(25.260925%, 57.289124%, 74.081421%)" offset="0.695312"/><stop stop-opacity="1" stop-color="rgb(24.987793%, 57.652283%, 74.237061%)" offset="0.703125"/><stop stop-opacity="1" stop-color="rgb(24.714661%, 58.015442%, 74.394226%)" offset="0.710938"/><stop stop-opacity="1" stop-color="rgb(24.441528%, 58.377075%, 74.549866%)" offset="0.71875"/><stop stop-opacity="1" stop-color="rgb(24.169922%, 58.740234%, 74.705505%)" offset="0.726562"/><stop stop-opacity="1" stop-color="rgb(23.89679%, 59.103394%, 74.861145%)" offset="0.734375"/><stop stop-opacity="1" stop-color="rgb(23.623657%, 59.466553%, 75.016785%)" offset="0.742188"/><stop stop-opacity="1" stop-color="rgb(23.352051%, 59.829712%, 75.17395%)" offset="0.75"/><stop stop-opacity="1" stop-color="rgb(23.078918%, 60.192871%, 75.32959%)" offset="0.757812"/><stop stop-opacity="1" stop-color="rgb(22.805786%, 60.55603%, 75.485229%)" offset="0.765625"/><stop stop-opacity="1" stop-color="rgb(22.53418%, 60.919189%, 75.640869%)" offset="0.773437"/><stop stop-opacity="1" stop-color="rgb(22.261047%, 61.280823%, 75.796509%)" offset="0.78125"/><stop stop-opacity="1" stop-color="rgb(21.987915%, 61.643982%, 75.953674%)" offset="0.789062"/><stop stop-opacity="1" stop-color="rgb(21.716309%, 62.007141%, 76.109314%)" offset="0.796875"/><stop stop-opacity="1" stop-color="rgb(21.443176%, 62.3703%, 76.264954%)" offset="0.804688"/><stop stop-opacity="1" stop-color="rgb(21.170044%, 62.733459%, 76.420593%)" offset="0.8125"/><stop stop-opacity="1" stop-color="rgb(20.896912%, 63.096619%, 76.577759%)" offset="0.820312"/><stop stop-opacity="1" stop-color="rgb(20.625305%, 63.459778%, 76.733398%)" offset="0.828125"/><stop stop-opacity="1" stop-color="rgb(20.352173%, 63.822937%, 76.889038%)" offset="0.835938"/><stop stop-opacity="1" stop-color="rgb(20.079041%, 64.186096%, 77.044678%)" offset="0.84375"/><stop stop-opacity="1" stop-color="rgb(19.807434%, 64.547729%, 77.200317%)" offset="0.851562"/><stop stop-opacity="1" stop-color="rgb(19.534302%, 64.910889%, 77.357483%)" offset="0.859375"/><stop stop-opacity="1" stop-color="rgb(19.261169%, 65.274048%, 77.513123%)" offset="0.867187"/><stop stop-opacity="1" stop-color="rgb(18.989563%, 65.637207%, 77.668762%)" offset="0.875"/><stop stop-opacity="1" stop-color="rgb(18.716431%, 66.000366%, 77.824402%)" offset="0.882812"/><stop stop-opacity="1" stop-color="rgb(18.443298%, 66.363525%, 77.980042%)" offset="0.890625"/><stop stop-opacity="1" stop-color="rgb(18.171692%, 66.726685%, 78.137207%)" offset="0.898438"/><stop stop-opacity="1" stop-color="rgb(17.89856%, 67.089844%, 78.292847%)" offset="0.90625"/><stop stop-opacity="1" stop-color="rgb(17.625427%, 67.453003%, 78.448486%)" offset="0.914062"/><stop stop-opacity="1" stop-color="rgb(17.352295%, 67.814636%, 78.604126%)" offset="0.921875"/><stop stop-opacity="1" stop-color="rgb(17.080688%, 68.177795%, 78.761292%)" offset="0.929688"/><stop stop-opacity="1" stop-color="rgb(16.807556%, 68.540955%, 78.916931%)" offset="0.9375"/><stop stop-opacity="1" stop-color="rgb(16.534424%, 68.904114%, 79.072571%)" offset="0.945312"/><stop stop-opacity="1" stop-color="rgb(16.262817%, 69.267273%, 79.22821%)" offset="0.953125"/><stop stop-opacity="1" stop-color="rgb(15.989685%, 69.630432%, 79.38385%)" offset="0.960937"/><stop stop-opacity="1" stop-color="rgb(15.716553%, 69.993591%, 79.541016%)" offset="0.96875"/><stop stop-opacity="1" stop-color="rgb(15.444946%, 70.35675%, 79.696655%)" offset="0.976562"/><stop stop-opacity="1" stop-color="rgb(15.171814%, 70.71991%, 79.852295%)" offset="0.984375"/><stop stop-opacity="1" stop-color="rgb(14.898682%, 71.081543%, 80.007935%)" offset="0.992188"/><stop stop-opacity="1" stop-color="rgb(14.627075%, 71.444702%, 80.163574%)" offset="1"/></linearGradient><clipPath id="84f699f761"><path d="M 75 74 L 299.9375 74 L 299.9375 302 L 75 302 Z M 75 74 " clip-rule="nonzero"/></clipPath><clipPath id="91687f5688"><path d="M 108.054688 249.34375 C 105.53125 248.195312 104.761719 244.539062 102.433594 241.769531 C 101.925781 240.785156 102.957031 242.078125 104.285156 243.949219 C 105.5625 245.816406 107.433594 248.046875 108.054688 249.34375 Z M 96.382812 250 L 95.414062 250.703125 C 96.578125 252.523438 97.941406 254.097656 98.675781 253.671875 C 97.941406 252.71875 97.347656 252.292969 96.742188 251.882812 C 97.085938 251.507812 97.316406 251.128906 96.382812 250 Z M 155.441406 278.660156 C 157.589844 279.398438 159.621094 279.988281 160.964844 279.90625 C 152.996094 277.9375 143.816406 273.496094 137.519531 270.65625 C 139.421875 271.707031 141.308594 272.789062 143.257812 273.757812 L 149.242188 276.363281 C 151.03125 277.050781 153.292969 277.9375 155.441406 278.660156 Z M 269.738281 259.851562 C 268.246094 261.886719 266.574219 263.589844 265.046875 265.296875 C 263.488281 266.96875 262.015625 268.625 260.507812 270.085938 C 257.40625 272.9375 254.621094 275.691406 251.816406 278.085938 C 251.75 278.132812 251.683594 278.199219 251.621094 278.25 C 250.226562 278.773438 248.898438 279.050781 247.667969 278.988281 C 245.699219 280.5625 243.652344 281.773438 241.734375 283.019531 C 239.78125 284.234375 237.945312 285.445312 236.109375 286.480469 C 236.058594 286.511719 236.011719 286.527344 235.976562 286.546875 C 235.78125 286.527344 235.601562 286.496094 235.371094 286.511719 C 235.339844 286.644531 235.304688 286.792969 235.273438 286.921875 C 231.863281 288.726562 228.714844 290.480469 225.648438 291.957031 C 222.304688 293.496094 219.1875 295.167969 216.089844 296.710938 C 212.972656 298.203125 209.941406 299.859375 206.84375 301.710938 C 210.007812 300.546875 213.726562 299.1875 217.746094 297.726562 C 221.632812 296.023438 225.863281 294.449219 229.960938 292.546875 C 231.140625 291.972656 232.335938 291.429688 233.535156 290.875 C 233.535156 290.890625 233.519531 290.890625 233.519531 290.90625 C 234.648438 290.5625 235.320312 290.203125 235.878906 289.808594 C 237.945312 288.859375 239.976562 287.90625 241.914062 286.890625 C 239.996094 288.628906 238.09375 290.429688 236.207031 292.367188 C 238.960938 290.429688 242.207031 288.152344 245.699219 285.691406 C 246.324219 285.183594 246.980469 284.691406 247.636719 284.183594 C 247.636719 284.183594 247.652344 284.183594 247.652344 284.183594 C 249.457031 283.332031 251.160156 282.464844 252.816406 281.773438 C 253.144531 279.871094 250.390625 283.054688 249.945312 282.414062 C 251.160156 281.496094 252.375 280.578125 253.570312 279.609375 C 256.03125 277.804688 258.390625 276.050781 260.507812 274.167969 C 262.113281 272.804688 263.652344 271.460938 265.113281 270.132812 C 265.554688 269.707031 265.964844 269.265625 266.375 268.820312 C 267.949219 267.445312 269.523438 266.117188 271.046875 264.886719 C 272.574219 263.589844 274 262.3125 275.425781 261.214844 C 275.246094 259.214844 273.246094 263.410156 272.753906 262.507812 C 275.707031 258.769531 278.589844 255.410156 280.902344 251.882812 C 282.101562 250.164062 283.246094 248.457031 284.3125 246.785156 C 285.328125 245.078125 286.199219 243.324219 287.035156 241.621094 C 283.9375 245.523438 281.050781 249.65625 278.3125 253.195312 C 275.523438 256.703125 272.574219 259.277344 269.738281 259.851562 Z M 295.527344 202.792969 C 295.070312 204.960938 294.660156 206.976562 294.25 208.894531 C 293.886719 210.828125 293.542969 212.648438 293.214844 214.417969 C 292.824219 216.175781 292.460938 217.910156 292.167969 219.648438 C 292.722656 217.765625 293.316406 215.730469 293.9375 213.664062 C 294.429688 211.566406 294.921875 209.402344 295.414062 207.304688 C 296.445312 203.089844 296.742188 198.941406 296.625 195.746094 C 296.234375 198.285156 295.871094 200.613281 295.527344 202.792969 Z M 148.503906 292.367188 C 150.6875 293.054688 153.242188 294.167969 155.800781 295.089844 C 158.359375 295.988281 160.964844 296.464844 163.015625 296.367188 C 160.65625 295.726562 157.6875 294.941406 155.0625 293.921875 C 152.40625 292.957031 149.996094 292.21875 148.503906 292.367188 Z M 296.445312 158.722656 C 297.117188 160.855469 297.789062 162.9375 298.429688 164.9375 C 297.871094 162.511719 297.28125 160.097656 296.644531 157.738281 C 295.871094 155.410156 295.070312 153.132812 294.234375 150.933594 C 293.804688 149.835938 293.378906 148.769531 292.953125 147.703125 C 292.496094 146.671875 291.96875 145.671875 291.460938 144.703125 C 290.445312 142.769531 289.394531 140.949219 288.347656 139.292969 C 290.429688 143.589844 292.527344 147.902344 294.050781 152.296875 C 294.855469 154.476562 295.742188 156.605469 296.445312 158.722656 Z M 283.460938 131.324219 C 284.492188 133.03125 285.476562 134.457031 286.445312 135.324219 C 284.429688 131.996094 282.394531 127.929688 280.132812 125.832031 C 280.722656 126.765625 281.328125 127.699219 281.902344 128.621094 C 282.445312 129.554688 282.96875 130.472656 283.460938 131.324219 Z M 151.421875 250.164062 C 150.800781 249.65625 149.683594 248.898438 148.359375 248.097656 C 147.011719 247.292969 145.585938 246.226562 144.046875 245.40625 C 143.617188 245.636719 142.914062 245.800781 143.816406 245.734375 C 145.339844 246.359375 146.71875 248 147.242188 248.507812 C 146.027344 247.605469 144.75 246.523438 144.339844 247.574219 C 144.699219 247.589844 145.011719 247.703125 145.324219 247.851562 C 145.226562 247.898438 145.144531 247.933594 145.046875 248.03125 C 144.980469 248.375 145.785156 249.164062 146.734375 249.753906 C 147.703125 250.292969 148.765625 250.6875 149.03125 250.472656 C 148.621094 250.308594 148.226562 249.949219 147.832031 249.539062 C 148.128906 249.65625 148.40625 249.636719 148.667969 249.390625 C 148.324219 249.277344 147.914062 249 147.503906 248.703125 C 152.015625 251.230469 152.667969 251.179688 151.421875 250.164062 Z M 153.324219 261.097656 C 155.144531 261.917969 157.128906 263.589844 158.375 262.296875 C 156.277344 261.542969 154.554688 260.835938 153.324219 261.097656 Z M 76.019531 201.875 C 76.347656 203.039062 76.691406 204.140625 77.003906 205.074219 C 76.65625 203.894531 76.378906 202.664062 76.246094 201.433594 C 76.148438 200.203125 76.117188 198.972656 76.082031 197.828125 C 76.019531 195.515625 75.96875 193.5 75.445312 192.171875 C 74.96875 193.546875 75.035156 195.84375 75.363281 198.269531 C 75.527344 199.464844 75.757812 200.695312 76.019531 201.875 Z M 143.652344 267.871094 C 143.40625 268.019531 144.78125 269.101562 148.683594 270.003906 C 147.226562 269.148438 146.011719 268.625 145.144531 268.28125 C 144.308594 267.917969 143.765625 267.789062 143.652344 267.871094 Z M 119.550781 250.210938 C 121.648438 251.671875 123.925781 253.769531 125.847656 254.015625 C 124.484375 252.917969 122.84375 251.148438 121.664062 249.882812 C 120.46875 248.621094 119.695312 247.851562 120.222656 248.605469 C 122.320312 250.589844 119.714844 248.882812 119.550781 250.210938 Z M 137.78125 264.363281 C 136.125 262.015625 132.878906 261.640625 130.042969 259.066406 C 130.191406 261.574219 136.585938 263.050781 137.78125 264.363281 Z M 92.628906 133.652344 C 92.429688 133.09375 92.511719 131.996094 93.101562 132.128906 C 94.136719 130.621094 96.957031 125.683594 97.742188 124.996094 C 98.890625 123.191406 100.023438 121.421875 101.167969 119.714844 C 103.382812 116.667969 105.335938 113.519531 107.285156 110.550781 C 106.941406 111.8125 106.777344 113.027344 105.628906 114.75 C 107.007812 113.371094 108.335938 112.058594 109.664062 110.78125 C 110.582031 109.796875 111.5 108.828125 112.433594 107.894531 C 115.386719 105.171875 118.253906 102.5 121.105469 100.007812 C 124.042969 97.628906 126.730469 95.089844 129.386719 92.746094 C 128.730469 93.875 128.257812 95.007812 126.699219 96.367188 C 126.878906 96.269531 127.042969 96.171875 127.222656 96.074219 C 134.160156 91.054688 141.339844 87.285156 149.292969 84.464844 C 148.882812 83.679688 147.011719 84.433594 145.078125 85.300781 C 143.882812 85.234375 145.734375 84.53125 147.929688 83.726562 C 150.09375 82.890625 152.71875 82.269531 152.816406 81.628906 C 152.636719 82.59375 154.113281 82.628906 156.539062 82.152344 C 157.671875 81.890625 159.046875 81.59375 160.554688 81.285156 C 165.851562 79.824219 171.179688 78.855469 176.722656 78.414062 C 176.589844 77.824219 175.574219 77.757812 174.28125 77.890625 C 173.835938 77.957031 173.410156 78.003906 172.953125 78.070312 C 172.789062 78.101562 172.625 78.121094 172.441406 78.152344 C 171.753906 77.921875 172.214844 77.757812 173.199219 77.628906 C 174.199219 76.839844 178.117188 77.234375 181.347656 76.152344 C 180.542969 75.464844 178.3125 75.644531 176.984375 75.28125 C 181.707031 73.398438 183.347656 77.085938 189.019531 76.5625 C 188.476562 76.019531 187.214844 75.792969 185.609375 75.742188 C 186.167969 75.332031 187.59375 75.332031 187.332031 74.546875 C 193.742188 74.808594 200.183594 75.660156 206.5625 77.070312 C 206.300781 76.957031 206.054688 76.839844 205.84375 76.726562 C 208.152344 76.445312 209.53125 77.152344 210.890625 78.070312 C 212.285156 78.429688 213.664062 78.855469 215.039062 79.265625 C 215.566406 79.234375 216.054688 79.183594 216.039062 78.675781 C 231.074219 83.367188 245.421875 91.464844 257.636719 102.351562 C 260.769531 105.15625 263.753906 108.140625 266.589844 111.289062 C 268.554688 113.339844 270.476562 115.4375 272.328125 117.617188 C 272.65625 118.191406 273.050781 118.816406 273.425781 119.421875 C 275.277344 120.570312 277.410156 125.078125 279.261719 127.4375 C 278.933594 127.257812 278.574219 126.914062 278.230469 126.488281 C 281.492188 131.503906 284.429688 136.769531 287.003906 142.277344 C 287.167969 142.917969 287.394531 143.621094 287.59375 144.292969 C 288.96875 145.769531 289.839844 150.050781 290.886719 152.867188 C 290.414062 150.949219 290.28125 149.128906 290.855469 148.671875 C 292.824219 150.835938 292.59375 155.3125 293.25 157.953125 C 292.445312 157.394531 291.558594 155.394531 291.003906 153.378906 C 289.789062 152 289.003906 147.851562 287.789062 145.03125 C 287.871094 145.277344 287.921875 145.492188 288.003906 145.738281 C 288.332031 146.964844 288.691406 148.277344 289.050781 149.640625 C 289.738281 152.359375 290.789062 155.214844 291.414062 158.34375 C 292.070312 161.460938 292.9375 164.675781 293.398438 168.019531 C 293.824219 171.363281 294.363281 174.742188 294.496094 178.101562 C 294.660156 180.773438 294.707031 183.449219 294.660156 186.121094 C 294.660156 186.136719 294.660156 186.167969 294.660156 186.1875 C 294.660156 186.285156 294.660156 186.382812 294.660156 186.464844 C 294.660156 186.808594 294.660156 187.167969 294.644531 187.515625 C 294.59375 199.054688 293.019531 210.664062 289.363281 221.796875 C 281.96875 244.867188 267 265.984375 245.636719 279.839844 C 245.667969 279.445312 245.882812 279.035156 246.324219 278.578125 C 241.585938 281.855469 236.566406 284.773438 231.289062 287.265625 C 229.78125 288.136719 228.273438 289.003906 226.796875 289.859375 C 225.664062 290.480469 224.566406 291.121094 223.417969 291.660156 C 222.269531 292.167969 221.105469 292.660156 219.941406 293.121094 C 220.730469 292.167969 222.320312 291.367188 224.023438 290.480469 C 224.253906 290.347656 224.484375 290.234375 224.714844 290.105469 C 222.894531 290.808594 221.074219 291.480469 219.203125 292.085938 C 219.417969 291.496094 220.007812 290.957031 221.433594 290.511719 C 221.335938 290.53125 221.238281 290.5625 221.140625 290.59375 C 220.484375 290.824219 219.828125 291.070312 219.140625 291.285156 C 217.1875 291.941406 215.1875 292.613281 213.253906 293.269531 C 211.285156 293.808594 209.367188 294.25 207.660156 294.628906 C 209.480469 293.90625 211.515625 293.285156 213.664062 292.53125 C 211.039062 293.25 208.480469 294.039062 205.941406 294.890625 C 203.398438 295.5625 200.890625 296.234375 198.429688 296.890625 C 197.183594 297.1875 195.953125 297.53125 194.710938 297.746094 C 193.460938 297.941406 192.21875 298.121094 190.988281 298.253906 C 192.003906 297.53125 193.726562 297.171875 195.628906 296.761719 C 197.511719 296.285156 199.578125 295.859375 201.265625 295.300781 C 198.628906 295.433594 194.808594 296.070312 190.691406 296.269531 C 188.640625 296.398438 186.527344 296.53125 184.496094 296.660156 C 182.460938 296.679688 180.492188 296.613281 178.738281 296.53125 C 181.378906 296.21875 184.363281 296.1875 187.59375 295.84375 C 190.808594 295.515625 194.265625 295.53125 197.757812 294.957031 C 195.003906 293.890625 191.003906 293.398438 187.035156 293.105469 C 186.050781 293.023438 185.050781 292.941406 184.085938 292.859375 C 183.117188 292.695312 182.183594 292.546875 181.28125 292.398438 C 179.476562 292.070312 177.871094 291.675781 176.609375 291.136719 C 177.296875 291.433594 177.507812 290.957031 177.261719 290.332031 C 175.199219 290.414062 171.738281 289.59375 169.523438 289.511719 C 170.804688 288.90625 174.34375 289.726562 177.082031 290.003906 C 176.753906 289.480469 176.148438 288.921875 175.199219 288.628906 C 175.035156 288.5625 174.886719 288.511719 174.738281 288.464844 C 174.953125 288.449219 175.132812 288.367188 175.230469 288.21875 C 174.984375 288.578125 171.851562 285.757812 174.65625 286.167969 C 171.246094 285.382812 168.097656 284.398438 165.148438 283.382812 C 162.246094 282.21875 159.554688 280.871094 156.964844 279.5625 C 159.867188 280.183594 164.523438 282.628906 169.3125 283.628906 C 174.035156 284.90625 178.671875 284.90625 180.410156 282.578125 C 178.722656 281.101562 177 279.757812 174.65625 278.5625 C 172.328125 277.234375 169.296875 276.347656 164.984375 275.527344 C 164.769531 274.742188 165.015625 273.824219 164.082031 273.214844 C 164.328125 272.59375 166.804688 274.445312 168.902344 274.296875 C 169.65625 274.167969 169.785156 273.511719 171.132812 273.871094 C 171.082031 273.660156 170.953125 273.460938 170.820312 273.28125 C 169.3125 273.117188 167.246094 272.871094 165.785156 272.820312 C 165.6875 272.101562 166.492188 272.199219 167.328125 272.332031 C 164.882812 271.445312 163.03125 271.117188 161.144531 270.625 C 159.246094 270.199219 157.226562 269.886719 154.523438 269.050781 C 155.128906 268.378906 153.882812 267.953125 152.898438 267.492188 C 155.375 268.050781 158.917969 268.820312 162.472656 270.085938 C 164.246094 270.722656 166.128906 271.132812 167.867188 271.722656 C 168.640625 271.953125 169.394531 272.214844 170.132812 272.476562 C 169.507812 271.953125 168.753906 271.476562 168.195312 270.921875 C 169.738281 270.574219 173.625 274.429688 174.363281 271.148438 C 174.425781 270.003906 171.707031 269.96875 169.851562 269.574219 C 170.113281 268.722656 171.65625 269.019531 173.28125 269.347656 C 173.117188 268.117188 172.492188 267.230469 172.625 266.609375 C 171.476562 266.445312 170.425781 266.148438 170.050781 265.9375 C 170.230469 265.640625 170.753906 265.671875 170.835938 265.28125 C 162.753906 263.527344 171.097656 264.625 173.789062 265.804688 C 173.804688 265.804688 173.820312 265.789062 173.851562 265.789062 C 172.378906 264.410156 171.492188 263.804688 170.558594 263.296875 C 169.625 262.820312 168.65625 262.34375 167.179688 261.179688 C 167.722656 260.886719 168.6875 261.230469 169.707031 261.640625 C 170.738281 262 171.804688 262.492188 172.460938 262.707031 C 173.148438 262.425781 173.820312 262.132812 174.460938 261.820312 C 173.558594 260.394531 169.640625 261.445312 169.214844 260.476562 C 169.394531 259.933594 169.558594 259.394531 168.902344 259.148438 C 170.394531 258.804688 172.441406 260.953125 175.164062 261.132812 C 175.117188 260.574219 172.851562 259.984375 175.28125 260.34375 C 174.609375 259.441406 171.753906 259.542969 170.789062 258.769531 C 172.148438 258.625 175.050781 258.722656 177.214844 259.035156 C 177.738281 258.03125 176.148438 258.066406 175.671875 257.574219 C 174.460938 257.296875 173.835938 257.589844 173.789062 258.476562 C 171.953125 256.96875 171.820312 255.621094 169.886719 254.886719 C 169.179688 253.589844 172.410156 254.738281 170.6875 253.851562 C 171.65625 253.195312 173.96875 253.589844 176.328125 254.113281 C 176.917969 254.246094 177.507812 254.359375 178.082031 254.476562 C 178.65625 254.539062 179.214844 254.574219 179.738281 254.589844 C 180.511719 254.605469 181.164062 254.574219 181.65625 254.410156 C 179.675781 254.277344 177.707031 254.050781 175.722656 253.753906 C 175.507812 253.722656 175.28125 253.6875 175.066406 253.65625 C 174.460938 253.558594 173.871094 253.441406 173.261719 253.328125 C 172.65625 253.210938 172.050781 253.097656 171.441406 252.984375 C 171.230469 252.933594 171.03125 252.882812 170.820312 252.835938 C 166.375 251.835938 162.097656 250.410156 158.03125 248.589844 C 157.933594 248.539062 157.835938 248.492188 157.734375 248.457031 C 156.835938 248.046875 155.933594 247.621094 155.0625 247.179688 C 154.769531 247.03125 154.488281 246.882812 154.210938 246.734375 C 153.539062 246.390625 152.867188 246.03125 152.210938 245.652344 C 151.75 245.390625 151.308594 245.128906 150.851562 244.851562 C 150.390625 244.570312 149.914062 244.292969 149.457031 244.015625 C 149.292969 243.917969 149.128906 243.816406 148.980469 243.71875 C 148.867188 243.882812 149.324219 244.277344 150.472656 244.882812 C 149.160156 245.375 147.226562 242.898438 146.421875 242.195312 C 144.667969 244.113281 148.621094 244.6875 149.160156 245.980469 C 146.421875 245.488281 144.539062 242.816406 142.308594 242.210938 C 142.816406 242.832031 144.621094 244.34375 146.667969 245.769531 C 145.472656 245.277344 143.929688 244.964844 142.453125 244.472656 C 142.109375 244.359375 141.765625 244.226562 141.453125 244.0625 C 142.371094 244.933594 143.226562 245.800781 143.898438 246.34375 C 143.699219 246.359375 143.503906 246.308594 143.308594 246.277344 C 143.339844 246.34375 143.40625 246.390625 143.4375 246.457031 C 140.324219 246.375 138.550781 242.242188 134.894531 241.195312 C 134.585938 242.292969 137.371094 242.292969 137.355469 243.785156 C 137.667969 243.308594 138.734375 244.144531 139.832031 245.277344 C 140.929688 246.425781 142.257812 247.6875 142.78125 248.425781 C 139.636719 246.703125 137.617188 244.882812 135.40625 243.195312 C 134.273438 242.375 133.222656 241.425781 132.058594 240.390625 C 130.863281 239.390625 129.550781 238.292969 128.042969 237.03125 C 131.011719 240.128906 132.273438 243.390625 136.242188 247.03125 C 135.175781 244.160156 137.796875 247.835938 137.898438 248.933594 C 138.847656 248.574219 140.308594 249.492188 141.914062 250.753906 C 141.683594 251.066406 141.109375 250.574219 140.667969 250.375 C 145.816406 255.558594 153.734375 258.933594 163.046875 262.542969 C 161.410156 262.230469 159.785156 261.835938 158.179688 261.410156 C 156.589844 260.917969 155.078125 260.246094 153.570312 259.625 C 153.0625 259.425781 152.585938 259.195312 152.113281 258.984375 C 153.128906 259.589844 153.964844 260.199219 154.046875 260.574219 C 154.964844 261.050781 155.210938 260.625 155.980469 260.902344 C 156.308594 261.460938 154.996094 261.28125 153.457031 260.835938 C 151.914062 260.410156 150.277344 259.476562 149.832031 259.050781 C 150.078125 258.820312 150.585938 258.984375 150.75 258.625 C 146.867188 256.621094 147.226562 256.589844 148.75 257.261719 C 147.539062 256.574219 146.375 255.851562 145.210938 255.164062 C 143.898438 254.425781 142.734375 253.539062 141.570312 252.722656 C 140.882812 252.359375 140.191406 252.015625 139.519531 251.621094 C 138.125 250.738281 136.832031 249.703125 135.535156 248.703125 C 134.75 248.128906 134.027344 247.523438 133.324219 246.882812 C 132.894531 246.621094 132.484375 246.359375 132.058594 246.128906 C 133.667969 247.785156 135.160156 249.328125 136.683594 250.71875 C 137.535156 251.179688 138.46875 251.835938 139.554688 252.589844 C 139.40625 252.6875 139.257812 252.722656 139.109375 252.753906 C 139.125 252.769531 139.144531 252.785156 139.175781 252.804688 C 140.390625 253.753906 141.570312 254.671875 142.75 255.589844 C 143.996094 256.425781 145.292969 257.195312 146.601562 258.015625 C 151.851562 261.261719 158.113281 264.117188 167.292969 266.574219 C 165.261719 266.589844 163.113281 266.101562 160.902344 265.425781 C 158.6875 264.789062 156.375 264.035156 154.195312 262.96875 C 149.703125 261.117188 145.519531 258.65625 141.488281 257.246094 C 141.109375 256.753906 141.339844 256.6875 141.554688 256.460938 C 141.40625 256.359375 141.242188 256.277344 141.09375 256.179688 C 139.109375 254.984375 137.09375 253.671875 135.257812 252.066406 C 134.304688 251.34375 133.386719 250.589844 132.484375 249.820312 C 132.976562 250.65625 133.289062 251.558594 133.683594 251.164062 C 134.894531 252.738281 132.222656 251.636719 131.402344 250.820312 C 131.386719 251.738281 132.339844 253.210938 130.371094 252.046875 C 129.929688 252.902344 131.421875 254.082031 131.453125 255.050781 C 132.027344 255.230469 132.550781 255.457031 133.324219 256 L 135.601562 257.574219 C 137.40625 258.558594 139.421875 259.722656 141.421875 261.082031 C 142.964844 262.164062 144.683594 263.035156 146.210938 264.066406 C 147.785156 265.035156 149.210938 266.117188 150.539062 266.9375 C 150.898438 267.3125 146.503906 265.378906 143.945312 264.589844 C 143.964844 264.410156 144.027344 264.296875 144.128906 264.230469 C 141.160156 263.179688 138.46875 261.246094 134.46875 258.296875 C 134.324219 258.195312 134.175781 258.132812 134.027344 258.03125 C 134.042969 258.015625 134.042969 258 134.058594 258 C 133.945312 257.917969 133.847656 257.851562 133.730469 257.753906 C 133.863281 257.820312 133.976562 257.867188 134.109375 257.933594 C 134.488281 257.574219 134.078125 257.132812 133.503906 256.65625 C 130.027344 255.230469 127.550781 253.441406 124.894531 251.636719 C 123.632812 250.621094 122.335938 249.574219 120.910156 248.441406 C 119.46875 247.308594 117.84375 246.128906 116.121094 244.636719 C 116.238281 242.03125 111.351562 240.113281 109.382812 236.277344 C 109.710938 236.832031 110.300781 238.914062 111.300781 240.832031 C 111.859375 241.785156 112.5 242.6875 113.203125 243.34375 C 113.007812 242.914062 112.910156 242.507812 112.976562 242.097656 C 113.515625 242.933594 114.121094 243.636719 114.746094 244.261719 C 114.957031 244.308594 115.15625 244.34375 115.367188 244.324219 C 115.566406 244.703125 115.566406 244.882812 115.484375 244.980469 C 116.992188 246.390625 118.449219 247.507812 119.074219 249.210938 C 118.566406 248.226562 116.171875 246.6875 114.53125 245.0625 C 114.5 245.0625 114.46875 245.082031 114.449219 245.082031 C 116.074219 246.492188 116.402344 246.6875 116.484375 248.144531 C 117.386719 248.867188 116.582031 247.210938 117.582031 248.128906 C 118.023438 249.308594 118.402344 250.410156 120.304688 252.882812 C 120.78125 253.359375 121.222656 253.851562 121.714844 254.3125 C 122.042969 253.96875 121.617188 253.425781 121.089844 252.835938 C 123.945312 255.820312 127.109375 258.605469 130.519531 261.230469 C 130.339844 260.917969 130.304688 260.605469 130.550781 260.34375 C 131.863281 261.425781 133.324219 262.3125 134.75 263.246094 C 134.40625 263.261719 133.175781 262.917969 132.078125 262.410156 C 139.535156 267.886719 148.226562 272.511719 158.210938 276.070312 C 158.195312 277.25 154.457031 274.542969 154.40625 275.691406 C 156.507812 277.347656 162.195312 278.429688 165.835938 279.28125 C 166.835938 278.019531 163.082031 278.132812 161.636719 277.542969 C 159.964844 276.5625 167.722656 278.25 168.179688 278.953125 C 166.917969 279.726562 164.328125 279.429688 161.410156 278.773438 C 158.539062 277.9375 155.359375 276.707031 152.6875 275.953125 C 153.179688 275.773438 153.652344 275.59375 153.800781 275.050781 C 153.097656 274.839844 152.390625 274.578125 151.703125 274.28125 C 151.375 275.117188 151.851562 275.199219 149.570312 275.558594 C 148.996094 275.445312 148.683594 275.117188 148.488281 274.757812 C 148.144531 274.625 147.800781 274.496094 147.4375 274.332031 C 145.71875 273.578125 143.882812 272.296875 142.554688 271.886719 C 143.765625 271.921875 144.667969 272.230469 145.554688 272.660156 C 145.488281 272.265625 145.683594 271.953125 144.375 271.132812 C 142.929688 271.414062 140.636719 270.511719 138.09375 269.199219 C 135.535156 267.640625 132.78125 265.625 130.402344 264.214844 C 130.730469 264.179688 131.042969 264.132812 131.304688 264 C 130.75 263.589844 130.191406 263.179688 129.632812 262.773438 C 129.421875 263.132812 129.257812 263.214844 127.519531 263.035156 C 125.699219 262.132812 127.46875 259.574219 125.386719 260.835938 C 123.878906 259.296875 124.535156 259.214844 124.417969 258.605469 C 122.238281 256.886719 120.207031 255.34375 118.582031 254.246094 C 118.8125 254.210938 118.925781 254.128906 118.976562 254.03125 C 117.402344 252.539062 115.597656 250.671875 113.910156 248.472656 C 112.910156 247.226562 111.894531 245.964844 110.875 244.6875 C 110.859375 244.671875 110.84375 244.652344 110.84375 244.636719 C 110.746094 245.046875 110.613281 245.554688 109.761719 244.949219 C 109.5 245.40625 109.808594 245.882812 110.269531 246.328125 C 110.238281 246.261719 110.1875 246.195312 110.121094 246.113281 C 110.941406 246.246094 111.351562 246.816406 111.679688 247.507812 C 111.976562 247.785156 112.140625 248.015625 111.976562 248.195312 C 112.285156 248.984375 112.613281 249.820312 113.269531 250.425781 C 112.171875 250.574219 111.84375 249.328125 111.566406 248.390625 C 111.546875 248.390625 111.546875 248.410156 111.53125 248.410156 C 111.21875 248.03125 110.957031 247.769531 110.730469 247.539062 C 110.664062 247.605469 110.582031 247.671875 110.484375 247.785156 C 110.320312 247.539062 110.300781 247.359375 110.335938 247.179688 C 109.464844 246.457031 109.121094 246.621094 108.515625 245.933594 C 108.074219 244.835938 108.285156 244.03125 109.15625 243.523438 C 107.84375 241.570312 106.972656 241.308594 105.988281 241.144531 C 108.875 243.242188 105.300781 241.6875 107.875 244.472656 C 107.417969 244.589844 106.710938 243.457031 106.300781 243.734375 C 106.828125 245.6875 109.925781 248.738281 111.007812 250.867188 C 108.664062 248.328125 105.5625 245.097656 103.367188 242.097656 C 101.085938 239.160156 99.085938 236.898438 98.382812 236.75 C 97.398438 236.898438 97.003906 232.785156 98.695312 235.652344 C 98.332031 234.472656 94.628906 230.585938 93.316406 226.847656 C 93.21875 227.996094 93.546875 229.390625 92.167969 228.242188 C 93.203125 231.667969 93.332031 230.636719 95.039062 233.109375 C 94.5625 232.882812 94.070312 232.667969 93.59375 232.945312 C 95.203125 235.113281 95.285156 233.980469 95.511719 236.539062 C 90.5625 228.421875 86.167969 217.585938 83.640625 206.269531 C 82.214844 200.761719 81.660156 194.972656 81.214844 189.449219 C 81.132812 186.695312 81.101562 183.972656 81.101562 181.363281 C 81.050781 178.742188 81.414062 176.25 81.578125 173.855469 C 80.96875 173.019531 81.789062 172.035156 82.394531 170.855469 C 82.527344 169.804688 82.691406 168.789062 82.855469 167.757812 C 82.476562 167.578125 81.640625 168.804688 82.230469 166.476562 C 82.691406 165.691406 83.167969 164.445312 83.660156 162.9375 C 83.707031 162.691406 83.742188 162.445312 83.789062 162.199219 C 84.429688 159.507812 85.101562 156.886719 85.773438 154.359375 C 86.398438 151.820312 87.398438 149.492188 88.183594 147.230469 C 87.773438 146.179688 89.054688 145.410156 89.988281 144.292969 C 90.332031 143.441406 90.675781 142.574219 91.035156 141.71875 C 90.792969 141.308594 89.511719 142.457031 90.726562 140.292969 C 91.445312 139.589844 92.316406 138.359375 93.285156 136.832031 C 93.480469 136.441406 93.660156 136.03125 93.875 135.652344 C 94.855469 133.75 95.792969 131.914062 96.726562 130.226562 C 97.742188 128.601562 98.710938 127.109375 99.578125 125.800781 C 96.234375 130.191406 93.773438 134.621094 91.265625 138.914062 C 89.117188 143.390625 86.839844 147.769531 85.332031 152.738281 C 86.726562 145.882812 89.511719 139.539062 92.628906 133.652344 Z M 147.324219 273.675781 C 147.570312 273.789062 147.832031 273.902344 148.09375 274.019531 C 147.949219 273.578125 147.800781 273.332031 147.324219 273.675781 Z M 124.796875 242.390625 C 124.648438 242.242188 124.5 242.078125 124.335938 241.933594 C 124.253906 242.210938 124.273438 242.472656 124.320312 242.75 C 124.386719 242.589844 124.601562 242.554688 124.796875 242.390625 Z M 218.253906 83.597656 C 219.222656 83.890625 220.140625 84.167969 220.957031 84.351562 C 220.140625 84.003906 219.351562 83.695312 218.566406 83.382812 C 218.367188 83.449219 218.253906 83.515625 218.253906 83.597656 Z M 108.238281 234.652344 C 107.398438 233.785156 106.582031 232.683594 105.761719 231.652344 C 105.695312 231.699219 105.644531 231.71875 105.582031 231.800781 C 106.449219 233.519531 107.664062 235.519531 108.53125 235.0625 C 108.449219 234.949219 108.335938 234.800781 108.238281 234.652344 Z M 100.972656 222.929688 C 101.234375 223.257812 101.515625 223.535156 101.824219 223.734375 C 101.578125 223.207031 101.332031 222.632812 101.121094 221.894531 C 100.988281 222.175781 100.957031 222.535156 100.972656 222.929688 Z M 101.480469 224.535156 C 101.515625 224.585938 101.53125 224.632812 101.546875 224.699219 C 101.90625 225.222656 102.152344 225.617188 102.351562 225.960938 C 102.414062 226.042969 102.464844 226.144531 102.546875 226.226562 C 103.761719 227.765625 105.285156 229.175781 105.957031 229.929688 C 104.808594 227.191406 103.496094 226.46875 102.382812 224.734375 C 102.152344 224.75 101.761719 224.503906 101.480469 224.535156 Z M 102.269531 235.734375 C 103.1875 237.175781 103.941406 238.195312 103.742188 237.226562 C 102.679688 235.914062 102.21875 234.621094 101.824219 233.585938 C 101.398438 232.570312 100.972656 231.816406 99.988281 231.488281 C 100.480469 232.273438 101.414062 234.242188 102.269531 235.734375 Z M 102.464844 238.949219 L 105.480469 243.457031 L 106.136719 242.980469 C 104.890625 241.703125 103.414062 237.605469 102.464844 238.949219 Z M 142.207031 270.902344 C 142.273438 270.855469 142.273438 270.804688 142.324219 270.757812 C 141.617188 270.492188 140.78125 270.117188 139.832031 269.609375 C 137.78125 268.542969 135.222656 267.050781 132.714844 265.132812 C 134.765625 267.117188 139.242188 269.3125 142.207031 270.902344 Z M 130.601562 248.589844 C 130.75 248.539062 130.894531 248.554688 131.027344 248.574219 C 128.8125 246.652344 126.683594 244.769531 124.5 243.292969 C 124.878906 244.078125 125.699219 244.882812 126.683594 245.734375 C 127.46875 246.390625 128.320312 247.144531 129.238281 247.851562 C 130.15625 248.554688 131.074219 249.308594 131.847656 250.164062 C 132.078125 249.738281 131.15625 249.144531 130.601562 248.589844 Z M 141.71875 255.476562 C 141.40625 255.375 141.011719 255.179688 140.554688 254.933594 C 140.929688 255.195312 141.324219 255.457031 141.71875 255.722656 C 141.71875 255.640625 141.734375 255.574219 141.71875 255.476562 Z M 140.371094 244.015625 C 139.878906 243.472656 139.371094 242.933594 138.816406 242.40625 C 138.960938 243.046875 139.601562 243.523438 140.371094 244.015625 Z M 138.878906 241.980469 C 138.863281 241.949219 138.832031 241.933594 138.816406 241.898438 C 138.816406 241.914062 138.816406 241.933594 138.816406 241.949219 C 138.832031 241.949219 138.863281 241.964844 138.878906 241.980469 Z M 288.953125 155.164062 C 288.296875 153.082031 287.640625 151.425781 287.574219 151.605469 C 287.574219 151.621094 287.574219 151.640625 287.574219 151.65625 C 288.148438 153.164062 288.59375 154.328125 288.953125 155.164062 Z M 278.871094 130.683594 C 278.6875 130.160156 278.050781 129.046875 277.050781 127.636719 C 277.902344 129.109375 278.492188 130.109375 278.886719 130.71875 C 278.871094 130.703125 278.871094 130.703125 278.871094 130.683594 Z M 273.820312 120.0625 C 273.902344 120.175781 273.949219 120.289062 274.03125 120.40625 C 274.558594 121.125 275.066406 121.878906 275.574219 122.601562 C 275 121.699219 274.410156 120.816406 273.820312 120.0625 Z M 180.886719 77.203125 C 181.230469 77.691406 182.492188 77.957031 184.3125 78.085938 C 185.855469 78.152344 187.804688 78.25 189.96875 78.367188 C 190.542969 78.347656 191.070312 78.300781 191.480469 78.203125 C 191.265625 78.285156 191.152344 78.367188 191.035156 78.429688 C 191.9375 78.480469 192.855469 78.546875 193.789062 78.613281 C 193.59375 78.019531 197.21875 78.449219 202.085938 79.265625 C 203.167969 79.480469 204.316406 79.757812 205.496094 80.039062 C 207.546875 80.382812 209.335938 80.875 210.792969 81.398438 C 211.203125 81.496094 211.613281 81.613281 212.023438 81.710938 C 212.203125 81.757812 212.382812 81.808594 212.5625 81.875 C 211.664062 80.890625 215.402344 82.613281 217.925781 83.136719 C 216.710938 82.660156 215.515625 82.1875 214.367188 81.757812 C 212.269531 81.003906 210.21875 80.496094 208.253906 79.941406 C 206.351562 79.449219 204.496094 78.9375 202.695312 78.578125 C 202.203125 78.511719 201.742188 78.449219 201.234375 78.382812 C 201.234375 78.367188 201.25 78.367188 201.265625 78.347656 C 199.824219 78.121094 198.398438 77.890625 196.972656 77.710938 C 195.136719 77.496094 193.316406 77.21875 191.445312 77.136719 C 189.578125 77.085938 187.691406 77.054688 185.722656 77.070312 C 184.167969 77.019531 182.542969 77.085938 180.886719 77.203125 Z M 89.199219 135.195312 C 89.839844 133.523438 92.347656 130.519531 91.757812 129.75 C 91.070312 130.765625 90.480469 130.683594 89.789062 131.601562 C 90.9375 131.816406 88.578125 134.605469 89.199219 135.195312 Z M 153.554688 273.757812 C 154.785156 274.003906 156.179688 274.003906 156.523438 273.902344 C 154.898438 273.378906 153.261719 272.902344 151.71875 272.183594 C 151.339844 272.921875 152.324219 273.511719 153.554688 273.757812 Z M 175.378906 280.890625 C 173.328125 281.070312 171.835938 280.773438 170.492188 280.480469 C 169.148438 280.136719 167.949219 279.871094 166.34375 280.265625 C 167.722656 280.316406 169.820312 281.070312 171.6875 281.347656 C 173.558594 281.644531 175.148438 281.726562 175.378906 280.890625 Z M 153.488281 252.015625 C 156.472656 252.800781 158.851562 255.902344 160.949219 255.132812 C 159.03125 254.3125 155.605469 251.820312 153.488281 252.015625 Z M 166.457031 256.886719 C 164.964844 256.769531 161.964844 254.640625 161.785156 256.246094 C 163.753906 255.835938 165.65625 258.113281 166.457031 256.886719 Z M 122.15625 279.019531 C 124.089844 280.25 126.273438 281.988281 128.5 283.546875 C 130.730469 285.070312 133.125 286.21875 135.140625 286.644531 C 133.027344 285.414062 130.355469 283.890625 128.09375 282.21875 C 125.765625 280.609375 123.632812 279.28125 122.15625 279.019531 Z M 82.625 226.519531 C 83.050781 226.242188 83.363281 225.945312 82.757812 224.617188 L 81.640625 225.042969 C 82.296875 227.109375 83.199219 228.980469 84.035156 228.765625 C 83.578125 227.652344 83.101562 227.078125 82.625 226.519531 Z M 143.160156 281.660156 C 145.621094 282.414062 149.503906 284.59375 151.324219 284.5625 C 154.097656 285.628906 156.671875 286.398438 157.652344 286.019531 C 155.867188 285.464844 153.226562 284.480469 150.621094 283.546875 C 148.03125 282.59375 145.554688 281.414062 143.816406 281.003906 C 144.75 281.429688 145.929688 282.054688 147.226562 282.707031 C 147.652344 282.9375 148.113281 283.152344 148.554688 283.382812 C 146.4375 282.464844 144.257812 281.460938 143.160156 281.660156 Z M 128.109375 257.492188 C 126.910156 256.296875 125.878906 255.476562 125.140625 254.917969 C 124.417969 254.328125 123.945312 254.082031 123.796875 254.128906 C 123.515625 254.195312 124.566406 255.589844 128.109375 257.492188 Z M 117.15625 255.210938 C 120.386719 257.851562 124.484375 261.328125 128.8125 264.542969 C 128.796875 264.296875 128.765625 264.066406 128.355469 263.773438 C 130.273438 263.589844 130.699219 266.164062 132.519531 267.132812 C 132.503906 267.132812 132.484375 267.132812 132.46875 267.148438 C 134.125 268.265625 135.78125 269.328125 137.421875 270.230469 C 136.109375 269.953125 134.289062 268.871094 132.402344 267.59375 C 132.207031 267.460938 132.027344 267.328125 131.832031 267.199219 C 131.550781 267.132812 131.289062 266.9375 131.074219 266.691406 C 129.617188 265.671875 128.207031 264.625 127.011719 263.753906 L 121.910156 259.6875 C 120.269531 258.261719 118.730469 256.722656 117.15625 255.210938 Z M 129.355469 264.953125 C 129.699219 265.199219 130.042969 265.445312 130.386719 265.691406 C 130.011719 265.066406 129.699219 264.589844 129.355469 264.953125 Z M 78.410156 177.28125 C 78.445312 175.675781 78.574219 174.953125 78.820312 174.988281 C 78.640625 176.101562 78.476562 177.28125 78.296875 178.511719 C 78.183594 178.382812 78.101562 178.21875 77.953125 178.101562 C 77.839844 181.039062 77.542969 184.300781 77.59375 187.742188 C 77.558594 191.1875 77.445312 194.828125 77.804688 198.402344 C 78.066406 201.992188 78.363281 205.582031 79.148438 208.84375 C 79.871094 212.125 80.542969 215.222656 81.707031 217.714844 C 81.296875 215.171875 80.855469 212.484375 80.429688 209.761719 C 80.824219 211.664062 81.265625 213.664062 81.839844 215.714844 C 82.707031 219.058594 83.527344 222.585938 84.804688 225.960938 C 85.988281 229.355469 87.214844 232.75 88.808594 235.703125 C 90.347656 238.6875 91.808594 241.488281 93.578125 243.605469 C 89.445312 234.421875 84.363281 223.488281 82.789062 214.253906 C 83.050781 214.847656 83.265625 215.847656 83.660156 215.746094 C 82.640625 214.5 82.117188 212.371094 81.789062 210.417969 C 81.460938 208.632812 81.050781 207.074219 79.96875 206.484375 C 79.886719 205.878906 79.804688 205.269531 79.722656 204.664062 C 79.789062 204.910156 79.871094 205.15625 79.9375 205.386719 C 79.363281 202.976562 79.496094 202.515625 80.414062 203.597656 C 79.675781 201.304688 79.394531 198.566406 79.085938 195.664062 C 78.9375 194.21875 78.820312 192.726562 78.722656 191.21875 C 78.707031 190.84375 78.707031 190.449219 78.707031 190.070312 C 78.722656 188.875 78.789062 187.695312 78.886719 186.546875 C 78.984375 187.1875 78.9375 188.203125 79.332031 188.21875 C 78.675781 186.742188 78.707031 184.546875 78.902344 182.578125 C 78.96875 181.691406 79.003906 180.855469 78.9375 180.136719 C 78.96875 179.464844 78.984375 178.742188 79.050781 178.101562 C 79.132812 177.199219 79.199219 176.332031 79.265625 175.480469 C 79.296875 175.527344 79.3125 175.578125 79.347656 175.644531 C 79.332031 175.167969 79.347656 174.660156 79.363281 174.167969 C 79.378906 173.808594 79.394531 173.460938 79.429688 173.117188 C 79.558594 171.378906 79.839844 169.542969 80.132812 167.640625 C 80.363281 166.199219 80.640625 164.738281 80.9375 163.265625 C 81.230469 161.789062 81.707031 160.34375 82.101562 158.902344 C 82.101562 158.886719 82.117188 158.871094 82.117188 158.855469 C 82.183594 159.179688 82.3125 159.527344 82.476562 159.691406 C 83.234375 156.441406 84.363281 153.277344 85.378906 150.082031 C 85.214844 148.082031 83.234375 155.835938 82.476562 157.96875 C 82.429688 157.96875 82.414062 158.035156 82.363281 158.050781 C 83.117188 155.476562 83.804688 152.933594 84.640625 150.6875 C 85.5625 148.179688 86.363281 145.902344 86.890625 144 C 85.988281 145.933594 84.886719 148.394531 83.722656 151.132812 C 82.660156 153.902344 81.722656 157.015625 80.789062 160.132812 C 80.296875 161.691406 79.9375 163.265625 79.675781 164.855469 C 79.378906 166.429688 79.117188 167.96875 78.902344 169.445312 C 78.707031 170.921875 78.476562 172.332031 78.429688 173.644531 C 78.347656 174.988281 78.363281 176.199219 78.410156 177.28125 Z M 132.632812 275.265625 C 131.042969 274.265625 128.746094 272.625 126.484375 271.050781 C 124.222656 269.460938 122.140625 267.691406 120.566406 266.835938 C 121.351562 267.492188 122.335938 268.394531 123.417969 269.363281 C 124.484375 270.363281 125.664062 271.363281 126.894531 272.214844 C 129.289062 273.96875 131.585938 275.378906 132.632812 275.265625 Z M 75.871094 169.199219 C 75.722656 170.414062 75.609375 171.660156 75.558594 172.855469 C 75.574219 174.070312 75.625 175.214844 75.675781 176.199219 C 75.640625 174.972656 75.707031 173.707031 75.902344 172.496094 C 76.132812 171.28125 76.410156 170.085938 76.675781 168.953125 C 77.199219 166.707031 77.675781 164.738281 77.527344 163.328125 C 76.691406 164.542969 76.164062 166.773438 75.871094 169.199219 Z M 174.707031 288.429688 C 171.886719 287.449219 173.65625 288.546875 174.707031 288.429688 Z M 105.546875 111.863281 C 106.597656 110.402344 109.792969 108.171875 109.433594 107.273438 C 108.5 108.074219 107.957031 107.828125 107.054688 108.550781 C 108.089844 109.058594 105.089844 111.140625 105.546875 111.863281 Z M 163.375 254.292969 C 161.671875 253.917969 159.03125 252.066406 157.949219 252.636719 C 159.671875 253.835938 161.375 254.507812 163.375 254.292969 Z M 293.378906 155.378906 C 293.660156 156.425781 293.9375 157.445312 294.183594 158.394531 C 294.742188 160.296875 295.316406 161.9375 296.019531 163.035156 C 294.921875 159.296875 294.019531 154.835938 292.378906 152.230469 C 292.722656 153.296875 293.050781 154.34375 293.378906 155.378906 Z M 207.546875 295.875 C 206.808594 297.234375 206.167969 298.597656 204.597656 299.644531 C 207.398438 299.5625 207.761719 298.664062 209.84375 298.234375 C 209.679688 296.988281 208.988281 296.152344 207.546875 295.875 Z M 296.757812 186.644531 C 296.808594 183.921875 298.183594 179.675781 296.839844 177.070312 C 295.398438 177.707031 295.460938 185.121094 296.757812 186.644531 Z M 158.046875 283.988281 C 159.144531 285.25 164.867188 287.53125 167.210938 286.972656 C 164.703125 285.855469 159.769531 283.546875 158.046875 283.988281 Z M 284.542969 236.128906 C 283.691406 237.898438 282.886719 239.570312 282.117188 241.195312 C 281.28125 242.785156 280.492188 244.375 279.738281 245.964844 C 280.773438 244.292969 281.871094 242.488281 282.984375 240.636719 C 284 238.734375 285.035156 236.785156 286.066406 234.867188 C 288.167969 231.0625 289.511719 227.144531 290.230469 224.011719 C 289.199219 226.355469 288.25 228.519531 287.347656 230.535156 C 286.347656 232.539062 285.410156 234.390625 284.542969 236.128906 Z M 299.003906 181.398438 C 299.21875 183.710938 299.511719 185.988281 299.644531 188.21875 C 299.742188 190.464844 299.839844 192.628906 299.9375 194.746094 C 300.019531 192.269531 300.085938 189.777344 300.070312 187.332031 C 299.9375 184.890625 299.742188 182.480469 299.511719 180.136719 C 299.382812 178.972656 299.25 177.824219 299.117188 176.691406 C 298.9375 175.5625 298.691406 174.480469 298.460938 173.398438 C 297.988281 171.265625 297.445312 169.230469 296.855469 167.363281 C 297.742188 172.050781 298.644531 176.757812 299.003906 181.398438 Z M 299.003906 181.398438 " clip-rule="nonzero"/></clipPath><linearGradient x1="-10.285737" gradientTransform="matrix(-1.620623, -0.248743, 0.248743, -1.620623, 280.826778, 315.050928)" y1="68.556999" x2="146.460142" gradientUnits="userSpaceOnUse" y2="68.556999" id="4cc6f7e9ef"><stop stop-opacity="1" stop-color="rgb(6.698608%, 81.999207%, 84.698486%)" offset="0"/><stop stop-opacity="1" stop-color="rgb(6.698608%, 81.999207%, 84.698486%)" offset="0.0625"/><stop stop-opacity="1" stop-color="rgb(6.698608%, 82.046509%, 84.533691%)" offset="0.09375"/><stop stop-opacity="1" stop-color="rgb(6.698608%, 82.141113%, 84.202576%)" offset="0.125"/><stop stop-opacity="1" stop-color="rgb(6.698608%, 82.237244%, 83.866882%)" offset="0.15625"/><stop stop-opacity="1" stop-color="rgb(6.698608%, 82.333374%, 83.532715%)" offset="0.1875"/><stop stop-opacity="1" stop-color="rgb(6.698608%, 82.429504%, 83.197021%)" offset="0.21875"/><stop stop-opacity="1" stop-color="rgb(6.698608%, 82.525635%, 82.862854%)" offset="0.25"/><stop stop-opacity="1" stop-color="rgb(6.698608%, 82.621765%, 82.527161%)" offset="0.28125"/><stop stop-opacity="1" stop-color="rgb(6.698608%, 82.717896%, 82.192993%)" offset="0.3125"/><stop stop-opacity="1" stop-color="rgb(6.698608%, 82.814026%, 81.8573%)" offset="0.34375"/><stop stop-opacity="1" stop-color="rgb(6.698608%, 82.910156%, 81.523132%)" offset="0.375"/><stop stop-opacity="1" stop-color="rgb(6.698608%, 83.006287%, 81.187439%)" offset="0.40625"/><stop stop-opacity="1" stop-color="rgb(6.698608%, 83.103943%, 80.853271%)" offset="0.4375"/><stop stop-opacity="1" stop-color="rgb(6.698608%, 83.200073%, 80.517578%)" offset="0.46875"/><stop stop-opacity="1" stop-color="rgb(6.698608%, 83.296204%, 80.183411%)" offset="0.5"/><stop stop-opacity="1" stop-color="rgb(6.698608%, 83.392334%, 79.847717%)" offset="0.53125"/><stop stop-opacity="1" stop-color="rgb(6.698608%, 83.488464%, 79.51355%)" offset="0.5625"/><stop stop-opacity="1" stop-color="rgb(6.698608%, 83.584595%, 79.177856%)" offset="0.59375"/><stop stop-opacity="1" stop-color="rgb(6.698608%, 83.680725%, 78.842163%)" offset="0.625"/><stop stop-opacity="1" stop-color="rgb(6.698608%, 83.776855%, 78.507996%)" offset="0.65625"/><stop stop-opacity="1" stop-color="rgb(6.698608%, 83.872986%, 78.172302%)" offset="0.6875"/><stop stop-opacity="1" stop-color="rgb(6.698608%, 83.969116%, 77.838135%)" offset="0.71875"/><stop stop-opacity="1" stop-color="rgb(6.698608%, 84.065247%, 77.502441%)" offset="0.75"/><stop stop-opacity="1" stop-color="rgb(6.698608%, 84.161377%, 77.168274%)" offset="0.78125"/><stop stop-opacity="1" stop-color="rgb(6.698608%, 84.257507%, 76.832581%)" offset="0.8125"/><stop stop-opacity="1" stop-color="rgb(6.698608%, 84.353638%, 76.498413%)" offset="0.84375"/><stop stop-opacity="1" stop-color="rgb(6.698608%, 84.449768%, 76.16272%)" offset="0.875"/><stop stop-opacity="1" stop-color="rgb(6.698608%, 84.545898%, 75.828552%)" offset="0.90625"/><stop stop-opacity="1" stop-color="rgb(6.698608%, 84.642029%, 75.492859%)" offset="0.9375"/><stop stop-opacity="1" stop-color="rgb(6.698608%, 84.693909%, 75.312805%)" offset="1"/></linearGradient></defs><g clip-path="url(#9a077ad318)"><rect x="-37.5" fill="url(#53e2c309b0)" width="450" y="-37.499999" height="449.999989"/></g><g clip-path="url(#84f699f761)"><g clip-path="url(#91687f5688)"><path fill="url(#4cc6f7e9ef)" d="M 294.757812 335.445312 L 334.171875 78.652344 L 80.148438 39.664062 L 40.734375 296.457031 Z M 294.757812 335.445312 " fill-rule="nonzero"/></g></g></svg>