<svg xmlns="http://www.w3.org/2000/svg" xmlns:xlink="http://www.w3.org/1999/xlink" width="500" zoomAndPan="magnify" viewBox="0 0 375 374.999991" height="500" preserveAspectRatio="xMidYMid meet" version="1.0"><defs><clipPath id="0db8b7ac47"><path d="M 137 91 L 375 91 L 375 374.8125 L 137 374.8125 Z M 137 91 " clip-rule="nonzero"/></clipPath><clipPath id="52397f68b6"><path d="M 0.1875 89 L 20 89 L 20 286 L 0.1875 286 Z M 0.1875 89 " clip-rule="nonzero"/></clipPath><clipPath id="58c42c54b6"><path d="M 91 0 L 288 0 L 288 374.8125 L 91 374.8125 Z M 91 0 " clip-rule="nonzero"/></clipPath></defs><path fill="#582c91" d="M 137.222656 64.640625 L 322.277344 64.640625 C 327.542969 64.640625 331.863281 60.332031 331.863281 55.058594 C 331.863281 49.789062 327.542969 45.472656 322.277344 45.472656 L 137.222656 45.472656 Z M 137.222656 64.640625 " fill-opacity="1" fill-rule="evenodd"/><path fill="#582c91" d="M 255.9375 129.472656 L 185.914062 199.496094 C 182.183594 203.222656 182.1875 209.324219 185.914062 213.046875 C 189.644531 216.777344 195.746094 216.777344 199.472656 213.046875 L 283.042969 129.472656 Z M 255.9375 129.472656 " fill-opacity="1" fill-rule="evenodd"/><path fill="#11d1d8" d="M 191.363281 129.472656 L 185.222656 135.617188 C 181.496094 139.34375 181.496094 145.441406 185.222656 149.167969 C 188.949219 152.898438 195.046875 152.898438 198.777344 149.167969 L 218.472656 129.472656 Z M 191.363281 129.472656 " fill-opacity="1" fill-rule="evenodd"/><path fill="#582c91" d="M 242.65625 263.921875 L 348.125 369.394531 C 351.84375 373.121094 357.949219 373.121094 361.671875 369.394531 C 365.402344 365.667969 365.402344 359.570312 361.671875 355.84375 L 256.207031 250.375 Z M 242.65625 263.921875 " fill-opacity="1" fill-rule="evenodd"/><g clip-path="url(#0db8b7ac47)"><path fill="#22d49e" d="M 369.375 110.09375 L 369.316406 110.109375 L 369.378906 110.09375 L 371.023438 108.449219 C 371.8125 107.867188 372.515625 107.167969 373.097656 106.378906 C 374.265625 104.785156 374.953125 102.832031 374.953125 100.71875 C 374.953125 95.449219 370.640625 91.136719 365.371094 91.136719 L 137.222656 91.136719 L 137.222656 110.308594 C 205.503906 110.308594 273.777344 110.308594 342.058594 110.308594 L 188.855469 263.515625 C 185.121094 267.242188 185.121094 273.339844 188.855469 277.066406 L 283.039062 371.257812 C 286.765625 374.980469 292.863281 374.980469 296.589844 371.25 C 300.316406 367.523438 300.316406 361.433594 296.589844 357.703125 L 209.183594 270.292969 C 262.578125 216.890625 315.980469 163.496094 369.375 110.09375 Z M 369.375 110.09375 " fill-opacity="1" fill-rule="evenodd"/></g><path fill="#11d1d8" d="M 274.941406 231.636719 L 348.820312 305.511719 C 352.550781 309.238281 358.648438 309.238281 362.371094 305.507812 C 366.097656 301.78125 366.097656 295.683594 362.371094 291.957031 L 288.496094 218.085938 Z M 274.941406 231.636719 " fill-opacity="1" fill-rule="evenodd"/><g clip-path="url(#52397f68b6)"><path fill="#22d49e" d="M 19.398438 275.625 L 19.398438 99.171875 C 19.398438 93.898438 15.082031 89.589844 9.8125 89.589844 C 4.539062 89.589844 0.230469 93.902344 0.230469 99.171875 L 0.230469 275.625 C 0.230469 280.894531 4.539062 285.214844 9.8125 285.214844 C 15.082031 285.214844 19.398438 280.894531 19.398438 275.625 Z M 19.398438 275.625 " fill-opacity="1" fill-rule="evenodd"/></g><path fill="#582c91" d="M 45.898438 54.496094 L 45.898438 320.304688 C 45.898438 325.578125 50.207031 329.890625 55.476562 329.890625 C 60.75 329.890625 65.0625 325.574219 65.0625 320.304688 L 65.0625 54.496094 C 65.0625 49.226562 60.753906 44.910156 55.476562 44.910156 C 50.207031 44.910156 45.898438 49.226562 45.898438 54.496094 Z M 45.898438 54.496094 " fill-opacity="1" fill-rule="evenodd"/><g clip-path="url(#58c42c54b6)"><path fill="#11d1d8" d="M 101.144531 -0.1875 C 95.203125 -0.1875 91.554688 4.507812 91.554688 10.140625 L 91.554688 365.410156 C 91.554688 370.675781 95.867188 374.988281 101.144531 374.988281 C 106.414062 374.988281 110.722656 370.675781 110.722656 365.410156 L 110.722656 18.980469 L 277.597656 18.980469 C 282.867188 18.980469 287.179688 14.667969 287.179688 9.394531 C 287.179688 4.125 282.867188 -0.1875 277.597656 -0.1875 Z M 101.144531 -0.1875 " fill-opacity="1" fill-rule="evenodd"/></g></svg>