<svg xmlns="http://www.w3.org/2000/svg" xmlns:xlink="http://www.w3.org/1999/xlink" width="500" zoomAndPan="magnify" viewBox="0 0 375 374.999991" height="500" preserveAspectRatio="xMidYMid meet" version="1.0"><defs><clipPath id="2a28729eba"><path d="M 375 187.5 C 375 190.570312 374.925781 193.636719 374.773438 196.699219 C 374.625 199.765625 374.398438 202.824219 374.097656 205.878906 C 373.796875 208.933594 373.421875 211.976562 372.96875 215.011719 C 372.519531 218.046875 371.996094 221.070312 371.398438 224.078125 C 370.796875 227.089844 370.125 230.082031 369.378906 233.058594 C 368.636719 236.035156 367.816406 238.992188 366.925781 241.929688 C 366.035156 244.863281 365.074219 247.777344 364.039062 250.667969 C 363.003906 253.554688 361.902344 256.417969 360.726562 259.253906 C 359.554688 262.089844 358.308594 264.890625 356.996094 267.667969 C 355.6875 270.441406 354.308594 273.179688 352.859375 275.886719 C 351.414062 278.59375 349.902344 281.261719 348.324219 283.894531 C 346.746094 286.527344 345.105469 289.117188 343.402344 291.667969 C 341.695312 294.222656 339.929688 296.730469 338.101562 299.195312 C 336.273438 301.660156 334.386719 304.078125 332.4375 306.449219 C 330.492188 308.820312 328.488281 311.144531 326.429688 313.417969 C 324.367188 315.691406 322.253906 317.914062 320.082031 320.082031 C 317.914062 322.253906 315.691406 324.367188 313.417969 326.429688 C 311.144531 328.488281 308.820312 330.492188 306.449219 332.4375 C 304.078125 334.386719 301.660156 336.273438 299.195312 338.101562 C 296.730469 339.929688 294.222656 341.695312 291.667969 343.402344 C 289.117188 345.105469 286.527344 346.746094 283.894531 348.324219 C 281.261719 349.902344 278.59375 351.414062 275.886719 352.859375 C 273.179688 354.308594 270.441406 355.6875 267.667969 356.996094 C 264.890625 358.308594 262.089844 359.554688 259.253906 360.726562 C 256.417969 361.902344 253.554688 363.003906 250.667969 364.039062 C 247.777344 365.074219 244.863281 366.035156 241.929688 366.925781 C 238.992188 367.816406 236.035156 368.636719 233.058594 369.378906 C 230.082031 370.125 227.089844 370.796875 224.078125 371.398438 C 221.070312 371.996094 218.046875 372.519531 215.011719 372.96875 C 211.976562 373.421875 208.933594 373.796875 205.878906 374.097656 C 202.824219 374.398438 199.765625 374.625 196.699219 374.773438 C 193.636719 374.925781 190.570312 375 187.5 375 C 184.429688 375 181.363281 374.925781 178.300781 374.773438 C 175.234375 374.625 172.175781 374.398438 169.121094 374.097656 C 166.066406 373.796875 163.023438 373.421875 159.988281 372.96875 C 156.953125 372.519531 153.929688 371.996094 150.921875 371.398438 C 147.910156 370.796875 144.917969 370.125 141.941406 369.378906 C 138.964844 368.636719 136.007812 367.816406 133.070312 366.925781 C 130.136719 366.035156 127.222656 365.074219 124.332031 364.039062 C 121.445312 363.003906 118.582031 361.902344 115.746094 360.726562 C 112.910156 359.554688 110.105469 358.308594 107.332031 356.996094 C 104.558594 355.6875 101.820312 354.308594 99.113281 352.859375 C 96.40625 351.414062 93.738281 349.902344 91.105469 348.324219 C 88.472656 346.746094 85.882812 345.105469 83.332031 343.402344 C 80.777344 341.695312 78.269531 339.929688 75.804688 338.101562 C 73.339844 336.273438 70.921875 334.386719 68.550781 332.4375 C 66.179688 330.492188 63.855469 328.488281 61.582031 326.429688 C 59.308594 324.367188 57.085938 322.253906 54.917969 320.082031 C 52.746094 317.914062 50.632812 315.691406 48.570312 313.417969 C 46.511719 311.144531 44.507812 308.820312 42.558594 306.449219 C 40.613281 304.078125 38.726562 301.660156 36.898438 299.195312 C 35.070312 296.730469 33.304688 294.222656 31.597656 291.667969 C 29.894531 289.117188 28.253906 286.527344 26.675781 283.894531 C 25.097656 281.261719 23.585938 278.59375 22.140625 275.886719 C 20.691406 273.179688 19.3125 270.441406 18.003906 267.667969 C 16.691406 264.890625 15.445312 262.089844 14.273438 259.253906 C 13.097656 256.417969 11.996094 253.554688 10.960938 250.667969 C 9.925781 247.777344 8.964844 244.863281 8.074219 241.929688 C 7.183594 238.992188 6.363281 236.035156 5.621094 233.058594 C 4.875 230.082031 4.203125 227.089844 3.601562 224.078125 C 3.003906 221.070312 2.480469 218.046875 2.03125 215.011719 C 1.578125 211.976562 1.203125 208.933594 0.902344 205.878906 C 0.601562 202.824219 0.375 199.765625 0.226562 196.699219 C 0.0742188 193.636719 0 190.570312 0 187.5 C 0 184.429688 0.0742188 181.363281 0.226562 178.300781 C 0.375 175.234375 0.601562 172.175781 0.902344 169.121094 C 1.203125 166.066406 1.578125 163.023438 2.03125 159.988281 C 2.480469 156.953125 3.003906 153.929688 3.601562 150.921875 C 4.203125 147.910156 4.875 144.917969 5.621094 141.941406 C 6.363281 138.964844 7.183594 136.007812 8.074219 133.070312 C 8.964844 130.136719 9.925781 127.222656 10.960938 124.332031 C 11.996094 121.445312 13.097656 118.582031 14.273438 115.746094 C 15.445312 112.910156 16.691406 110.105469 18.003906 107.332031 C 19.3125 104.558594 20.691406 101.820312 22.140625 99.113281 C 23.585938 96.40625 25.097656 93.738281 26.675781 91.105469 C 28.253906 88.472656 29.894531 85.882812 31.597656 83.332031 C 33.304688 80.777344 35.070312 78.269531 36.898438 75.804688 C 38.726562 73.339844 40.613281 70.921875 42.558594 68.550781 C 44.507812 66.179688 46.511719 63.855469 48.570312 61.582031 C 50.632812 59.308594 52.746094 57.085938 54.917969 54.917969 C 57.085938 52.746094 59.308594 50.632812 61.582031 48.570312 C 63.855469 46.511719 66.179688 44.507812 68.550781 42.558594 C 70.921875 40.613281 73.339844 38.726562 75.804688 36.898438 C 78.269531 35.070312 80.777344 33.304688 83.332031 31.597656 C 85.882812 29.894531 88.472656 28.253906 91.105469 26.675781 C 93.738281 25.097656 96.40625 23.585938 99.113281 22.140625 C 101.820312 20.691406 104.558594 19.3125 107.332031 18.003906 C 110.105469 16.691406 112.910156 15.445312 115.746094 14.273438 C 118.582031 13.097656 121.445312 11.996094 124.332031 10.960938 C 127.222656 9.925781 130.136719 8.964844 133.070312 8.074219 C 136.007812 7.183594 138.964844 6.363281 141.941406 5.617188 C 144.917969 4.875 147.910156 4.203125 150.921875 3.601562 C 153.929688 3.003906 156.953125 2.480469 159.988281 2.03125 C 163.023438 1.578125 166.066406 1.203125 169.121094 0.902344 C 172.175781 0.601562 175.234375 0.375 178.300781 0.226562 C 181.363281 0.0742188 184.429688 0 187.5 0 C 190.570312 0 193.636719 0.0742188 196.699219 0.226562 C 199.765625 0.375 202.824219 0.601562 205.878906 0.902344 C 208.933594 1.203125 211.976562 1.578125 215.011719 2.03125 C 218.046875 2.480469 221.070312 3.003906 224.078125 3.601562 C 227.089844 4.203125 230.082031 4.875 233.058594 5.617188 C 236.035156 6.363281 238.992188 7.183594 241.929688 8.074219 C 244.863281 8.964844 247.777344 9.925781 250.667969 10.960938 C 253.554688 11.996094 256.417969 13.097656 259.253906 14.273438 C 262.089844 15.445312 264.890625 16.691406 267.667969 18.003906 C 270.441406 19.3125 273.179688 20.691406 275.886719 22.140625 C 278.59375 23.585938 281.261719 25.097656 283.894531 26.675781 C 286.527344 28.253906 289.117188 29.894531 291.667969 31.597656 C 294.222656 33.304688 296.730469 35.070312 299.195312 36.898438 C 301.660156 38.726562 304.078125 40.613281 306.449219 42.558594 C 308.820312 44.507812 311.144531 46.511719 313.417969 48.570312 C 315.691406 50.632812 317.914062 52.746094 320.082031 54.917969 C 322.253906 57.085938 324.367188 59.308594 326.429688 61.582031 C 328.488281 63.855469 330.492188 66.179688 332.4375 68.550781 C 334.386719 70.921875 336.273438 73.339844 338.101562 75.804688 C 339.929688 78.269531 341.695312 80.777344 343.402344 83.332031 C 345.105469 85.882812 346.746094 88.472656 348.324219 91.105469 C 349.902344 93.738281 351.414062 96.40625 352.859375 99.113281 C 354.308594 101.820312 355.6875 104.558594 356.996094 107.332031 C 358.308594 110.105469 359.554688 112.910156 360.726562 115.746094 C 361.902344 118.582031 363.003906 121.445312 364.039062 124.332031 C 365.074219 127.222656 366.035156 130.136719 366.925781 133.070312 C 367.816406 136.007812 368.636719 138.964844 369.378906 141.941406 C 370.125 144.917969 370.796875 147.910156 371.398438 150.921875 C 371.996094 153.929688 372.519531 156.953125 372.96875 159.988281 C 373.421875 163.023438 373.796875 166.066406 374.097656 169.121094 C 374.398438 172.175781 374.625 175.234375 374.773438 178.300781 C 374.925781 181.363281 375 184.429688 375 187.5 Z M 375 187.5 " clip-rule="nonzero"/></clipPath><linearGradient x1="0.000000000000056843" gradientTransform="matrix(0.75, 0, 0, 0.75, 0.0000045, 0)" y1="250" x2="499.999979" gradientUnits="userSpaceOnUse" y2="250" id="9ceb0314b2"><stop stop-opacity="1" stop-color="rgb(34.498596%, 17.298889%, 56.898499%)" offset="0"/><stop stop-opacity="1" stop-color="rgb(34.281921%, 17.825317%, 57.041931%)" offset="0.00390625"/><stop stop-opacity="1" stop-color="rgb(34.065247%, 18.351746%, 57.18689%)" offset="0.0078125"/><stop stop-opacity="1" stop-color="rgb(33.847046%, 18.878174%, 57.330322%)" offset="0.0117187"/><stop stop-opacity="1" stop-color="rgb(33.630371%, 19.406128%, 57.473755%)" offset="0.015625"/><stop stop-opacity="1" stop-color="rgb(33.41217%, 19.932556%, 57.617188%)" offset="0.0195312"/><stop stop-opacity="1" stop-color="rgb(33.195496%, 20.458984%, 57.762146%)" offset="0.0234375"/><stop stop-opacity="1" stop-color="rgb(32.978821%, 20.985413%, 57.905579%)" offset="0.0273437"/><stop stop-opacity="1" stop-color="rgb(32.762146%, 21.511841%, 58.049011%)" offset="0.03125"/><stop stop-opacity="1" stop-color="rgb(32.543945%, 22.038269%, 58.192444%)" offset="0.0351562"/><stop stop-opacity="1" stop-color="rgb(32.327271%, 22.564697%, 58.337402%)" offset="0.0390625"/><stop stop-opacity="1" stop-color="rgb(32.10907%, 23.091125%, 58.480835%)" offset="0.0429687"/><stop stop-opacity="1" stop-color="rgb(31.892395%, 23.617554%, 58.624268%)" offset="0.046875"/><stop stop-opacity="1" stop-color="rgb(31.67572%, 24.143982%, 58.7677%)" offset="0.0507812"/><stop stop-opacity="1" stop-color="rgb(31.459045%, 24.67041%, 58.911133%)" offset="0.0546875"/><stop stop-opacity="1" stop-color="rgb(31.240845%, 25.196838%, 59.054565%)" offset="0.0585938"/><stop stop-opacity="1" stop-color="rgb(31.02417%, 25.724792%, 59.199524%)" offset="0.0625"/><stop stop-opacity="1" stop-color="rgb(30.805969%, 26.251221%, 59.342957%)" offset="0.0664062"/><stop stop-opacity="1" stop-color="rgb(30.589294%, 26.777649%, 59.486389%)" offset="0.0703125"/><stop stop-opacity="1" stop-color="rgb(30.37262%, 27.304077%, 59.629822%)" offset="0.0742187"/><stop stop-opacity="1" stop-color="rgb(30.155945%, 27.830505%, 59.77478%)" offset="0.078125"/><stop stop-opacity="1" stop-color="rgb(29.937744%, 28.356934%, 59.918213%)" offset="0.0820312"/><stop stop-opacity="1" stop-color="rgb(29.721069%, 28.883362%, 60.061646%)" offset="0.0859375"/><stop stop-opacity="1" stop-color="rgb(29.502869%, 29.40979%, 60.205078%)" offset="0.0898437"/><stop stop-opacity="1" stop-color="rgb(29.286194%, 29.936218%, 60.348511%)" offset="0.09375"/><stop stop-opacity="1" stop-color="rgb(29.069519%, 30.462646%, 60.491943%)" offset="0.0976562"/><stop stop-opacity="1" stop-color="rgb(28.852844%, 30.990601%, 60.636902%)" offset="0.101562"/><stop stop-opacity="1" stop-color="rgb(28.634644%, 31.517029%, 60.780334%)" offset="0.105469"/><stop stop-opacity="1" stop-color="rgb(28.417969%, 32.043457%, 60.923767%)" offset="0.109375"/><stop stop-opacity="1" stop-color="rgb(28.199768%, 32.569885%, 61.0672%)" offset="0.113281"/><stop stop-opacity="1" stop-color="rgb(27.983093%, 33.096313%, 61.212158%)" offset="0.117188"/><stop stop-opacity="1" stop-color="rgb(27.766418%, 33.622742%, 61.355591%)" offset="0.121094"/><stop stop-opacity="1" stop-color="rgb(27.549744%, 34.14917%, 61.499023%)" offset="0.125"/><stop stop-opacity="1" stop-color="rgb(27.331543%, 34.675598%, 61.642456%)" offset="0.128906"/><stop stop-opacity="1" stop-color="rgb(27.114868%, 35.202026%, 61.787415%)" offset="0.132812"/><stop stop-opacity="1" stop-color="rgb(26.896667%, 35.728455%, 61.930847%)" offset="0.136719"/><stop stop-opacity="1" stop-color="rgb(26.679993%, 36.254883%, 62.07428%)" offset="0.140625"/><stop stop-opacity="1" stop-color="rgb(26.463318%, 36.781311%, 62.217712%)" offset="0.144531"/><stop stop-opacity="1" stop-color="rgb(26.246643%, 37.309265%, 62.361145%)" offset="0.148437"/><stop stop-opacity="1" stop-color="rgb(26.028442%, 37.835693%, 62.504578%)" offset="0.152344"/><stop stop-opacity="1" stop-color="rgb(25.811768%, 38.362122%, 62.649536%)" offset="0.15625"/><stop stop-opacity="1" stop-color="rgb(25.593567%, 38.88855%, 62.792969%)" offset="0.160156"/><stop stop-opacity="1" stop-color="rgb(25.376892%, 39.414978%, 62.936401%)" offset="0.164062"/><stop stop-opacity="1" stop-color="rgb(25.160217%, 39.941406%, 63.079834%)" offset="0.167969"/><stop stop-opacity="1" stop-color="rgb(24.943542%, 40.467834%, 63.224792%)" offset="0.171875"/><stop stop-opacity="1" stop-color="rgb(24.725342%, 40.994263%, 63.368225%)" offset="0.175781"/><stop stop-opacity="1" stop-color="rgb(24.508667%, 41.520691%, 63.511658%)" offset="0.179687"/><stop stop-opacity="1" stop-color="rgb(24.290466%, 42.047119%, 63.65509%)" offset="0.183594"/><stop stop-opacity="1" stop-color="rgb(24.073792%, 42.573547%, 63.798523%)" offset="0.1875"/><stop stop-opacity="1" stop-color="rgb(23.857117%, 43.099976%, 63.941956%)" offset="0.191406"/><stop stop-opacity="1" stop-color="rgb(23.640442%, 43.62793%, 64.086914%)" offset="0.195312"/><stop stop-opacity="1" stop-color="rgb(23.422241%, 44.154358%, 64.230347%)" offset="0.199219"/><stop stop-opacity="1" stop-color="rgb(23.205566%, 44.680786%, 64.373779%)" offset="0.203125"/><stop stop-opacity="1" stop-color="rgb(22.987366%, 45.207214%, 64.517212%)" offset="0.207031"/><stop stop-opacity="1" stop-color="rgb(22.770691%, 45.733643%, 64.66217%)" offset="0.210938"/><stop stop-opacity="1" stop-color="rgb(22.554016%, 46.260071%, 64.805603%)" offset="0.214844"/><stop stop-opacity="1" stop-color="rgb(22.337341%, 46.786499%, 64.949036%)" offset="0.21875"/><stop stop-opacity="1" stop-color="rgb(22.119141%, 47.312927%, 65.092468%)" offset="0.222656"/><stop stop-opacity="1" stop-color="rgb(21.902466%, 47.839355%, 65.237427%)" offset="0.226562"/><stop stop-opacity="1" stop-color="rgb(21.684265%, 48.365784%, 65.380859%)" offset="0.230469"/><stop stop-opacity="1" stop-color="rgb(21.46759%, 48.893738%, 65.524292%)" offset="0.234375"/><stop stop-opacity="1" stop-color="rgb(21.250916%, 49.420166%, 65.667725%)" offset="0.238281"/><stop stop-opacity="1" stop-color="rgb(21.034241%, 49.946594%, 65.811157%)" offset="0.242188"/><stop stop-opacity="1" stop-color="rgb(20.81604%, 50.473022%, 65.95459%)" offset="0.246094"/><stop stop-opacity="1" stop-color="rgb(20.599365%, 50.999451%, 66.099548%)" offset="0.25"/><stop stop-opacity="1" stop-color="rgb(20.381165%, 51.525879%, 66.242981%)" offset="0.253906"/><stop stop-opacity="1" stop-color="rgb(20.16449%, 52.052307%, 66.386414%)" offset="0.257812"/><stop stop-opacity="1" stop-color="rgb(19.947815%, 52.578735%, 66.529846%)" offset="0.261719"/><stop stop-opacity="1" stop-color="rgb(19.73114%, 53.105164%, 66.674805%)" offset="0.265625"/><stop stop-opacity="1" stop-color="rgb(19.512939%, 53.631592%, 66.818237%)" offset="0.269531"/><stop stop-opacity="1" stop-color="rgb(19.296265%, 54.15802%, 66.96167%)" offset="0.273437"/><stop stop-opacity="1" stop-color="rgb(19.078064%, 54.684448%, 67.105103%)" offset="0.277344"/><stop stop-opacity="1" stop-color="rgb(18.861389%, 55.212402%, 67.248535%)" offset="0.28125"/><stop stop-opacity="1" stop-color="rgb(18.644714%, 55.738831%, 67.391968%)" offset="0.285156"/><stop stop-opacity="1" stop-color="rgb(18.42804%, 56.265259%, 67.536926%)" offset="0.289062"/><stop stop-opacity="1" stop-color="rgb(18.209839%, 56.791687%, 67.680359%)" offset="0.292969"/><stop stop-opacity="1" stop-color="rgb(17.993164%, 57.318115%, 67.823792%)" offset="0.296875"/><stop stop-opacity="1" stop-color="rgb(17.774963%, 57.844543%, 67.967224%)" offset="0.300781"/><stop stop-opacity="1" stop-color="rgb(17.558289%, 58.370972%, 68.112183%)" offset="0.304687"/><stop stop-opacity="1" stop-color="rgb(17.341614%, 58.8974%, 68.255615%)" offset="0.308594"/><stop stop-opacity="1" stop-color="rgb(17.124939%, 59.423828%, 68.399048%)" offset="0.3125"/><stop stop-opacity="1" stop-color="rgb(16.906738%, 59.950256%, 68.54248%)" offset="0.316406"/><stop stop-opacity="1" stop-color="rgb(16.690063%, 60.476685%, 68.687439%)" offset="0.320312"/><stop stop-opacity="1" stop-color="rgb(16.471863%, 61.003113%, 68.830872%)" offset="0.324219"/><stop stop-opacity="1" stop-color="rgb(16.255188%, 61.531067%, 68.974304%)" offset="0.328125"/><stop stop-opacity="1" stop-color="rgb(16.038513%, 62.057495%, 69.117737%)" offset="0.332031"/><stop stop-opacity="1" stop-color="rgb(15.821838%, 62.583923%, 69.261169%)" offset="0.335937"/><stop stop-opacity="1" stop-color="rgb(15.603638%, 63.110352%, 69.404602%)" offset="0.339844"/><stop stop-opacity="1" stop-color="rgb(15.386963%, 63.63678%, 69.549561%)" offset="0.34375"/><stop stop-opacity="1" stop-color="rgb(15.168762%, 64.163208%, 69.692993%)" offset="0.347656"/><stop stop-opacity="1" stop-color="rgb(14.952087%, 64.689636%, 69.836426%)" offset="0.351562"/><stop stop-opacity="1" stop-color="rgb(14.735413%, 65.216064%, 69.979858%)" offset="0.355469"/><stop stop-opacity="1" stop-color="rgb(14.518738%, 65.742493%, 70.124817%)" offset="0.359375"/><stop stop-opacity="1" stop-color="rgb(14.300537%, 66.268921%, 70.26825%)" offset="0.363281"/><stop stop-opacity="1" stop-color="rgb(14.083862%, 66.795349%, 70.411682%)" offset="0.367187"/><stop stop-opacity="1" stop-color="rgb(13.865662%, 67.321777%, 70.555115%)" offset="0.371094"/><stop stop-opacity="1" stop-color="rgb(13.648987%, 67.849731%, 70.698547%)" offset="0.375"/><stop stop-opacity="1" stop-color="rgb(13.430786%, 68.37616%, 70.84198%)" offset="0.378906"/><stop stop-opacity="1" stop-color="rgb(13.214111%, 68.902588%, 70.986938%)" offset="0.382812"/><stop stop-opacity="1" stop-color="rgb(12.997437%, 69.429016%, 71.130371%)" offset="0.386719"/><stop stop-opacity="1" stop-color="rgb(12.780762%, 69.955444%, 71.273804%)" offset="0.390625"/><stop stop-opacity="1" stop-color="rgb(12.562561%, 70.481873%, 71.417236%)" offset="0.394531"/><stop stop-opacity="1" stop-color="rgb(12.345886%, 71.008301%, 71.562195%)" offset="0.398438"/><stop stop-opacity="1" stop-color="rgb(12.127686%, 71.534729%, 71.705627%)" offset="0.402344"/><stop stop-opacity="1" stop-color="rgb(11.911011%, 72.061157%, 71.84906%)" offset="0.40625"/><stop stop-opacity="1" stop-color="rgb(11.694336%, 72.587585%, 71.992493%)" offset="0.410156"/><stop stop-opacity="1" stop-color="rgb(11.477661%, 73.11554%, 72.137451%)" offset="0.414062"/><stop stop-opacity="1" stop-color="rgb(11.25946%, 73.641968%, 72.280884%)" offset="0.417969"/><stop stop-opacity="1" stop-color="rgb(11.042786%, 74.168396%, 72.424316%)" offset="0.421875"/><stop stop-opacity="1" stop-color="rgb(10.824585%, 74.694824%, 72.567749%)" offset="0.425781"/><stop stop-opacity="1" stop-color="rgb(10.60791%, 75.221252%, 72.711182%)" offset="0.429688"/><stop stop-opacity="1" stop-color="rgb(10.391235%, 75.747681%, 72.854614%)" offset="0.433594"/><stop stop-opacity="1" stop-color="rgb(10.174561%, 76.274109%, 72.999573%)" offset="0.4375"/><stop stop-opacity="1" stop-color="rgb(9.95636%, 76.800537%, 73.143005%)" offset="0.441406"/><stop stop-opacity="1" stop-color="rgb(9.739685%, 77.326965%, 73.286438%)" offset="0.445312"/><stop stop-opacity="1" stop-color="rgb(9.521484%, 77.853394%, 73.429871%)" offset="0.449219"/><stop stop-opacity="1" stop-color="rgb(9.30481%, 78.379822%, 73.574829%)" offset="0.453125"/><stop stop-opacity="1" stop-color="rgb(9.088135%, 78.90625%, 73.718262%)" offset="0.457031"/><stop stop-opacity="1" stop-color="rgb(8.87146%, 79.434204%, 73.861694%)" offset="0.460938"/><stop stop-opacity="1" stop-color="rgb(8.653259%, 79.960632%, 74.005127%)" offset="0.464844"/><stop stop-opacity="1" stop-color="rgb(8.436584%, 80.487061%, 74.14856%)" offset="0.46875"/><stop stop-opacity="1" stop-color="rgb(8.218384%, 81.013489%, 74.291992%)" offset="0.472656"/><stop stop-opacity="1" stop-color="rgb(8.001709%, 81.539917%, 74.436951%)" offset="0.476562"/><stop stop-opacity="1" stop-color="rgb(7.785034%, 82.066345%, 74.580383%)" offset="0.480469"/><stop stop-opacity="1" stop-color="rgb(7.568359%, 82.592773%, 74.723816%)" offset="0.484375"/><stop stop-opacity="1" stop-color="rgb(7.350159%, 83.119202%, 74.867249%)" offset="0.488281"/><stop stop-opacity="1" stop-color="rgb(7.133484%, 83.64563%, 75.012207%)" offset="0.492188"/><stop stop-opacity="1" stop-color="rgb(6.915283%, 84.172058%, 75.15564%)" offset="0.496094"/><stop stop-opacity="1" stop-color="rgb(6.698608%, 84.698486%, 75.299072%)" offset="0.5"/><stop stop-opacity="1" stop-color="rgb(6.698608%, 84.655762%, 75.445557%)" offset="0.515625"/><stop stop-opacity="1" stop-color="rgb(6.698608%, 84.571838%, 75.740051%)" offset="0.53125"/><stop stop-opacity="1" stop-color="rgb(6.698608%, 84.487915%, 76.03302%)" offset="0.546875"/><stop stop-opacity="1" stop-color="rgb(6.698608%, 84.403992%, 76.327515%)" offset="0.5625"/><stop stop-opacity="1" stop-color="rgb(6.698608%, 84.318542%, 76.620483%)" offset="0.578125"/><stop stop-opacity="1" stop-color="rgb(6.698608%, 84.234619%, 76.914978%)" offset="0.59375"/><stop stop-opacity="1" stop-color="rgb(6.698608%, 84.150696%, 77.207947%)" offset="0.609375"/><stop stop-opacity="1" stop-color="rgb(6.698608%, 84.065247%, 77.502441%)" offset="0.625"/><stop stop-opacity="1" stop-color="rgb(6.698608%, 83.981323%, 77.79541%)" offset="0.640625"/><stop stop-opacity="1" stop-color="rgb(6.698608%, 83.8974%, 78.089905%)" offset="0.65625"/><stop stop-opacity="1" stop-color="rgb(6.698608%, 83.813477%, 78.382874%)" offset="0.671875"/><stop stop-opacity="1" stop-color="rgb(6.698608%, 83.728027%, 78.677368%)" offset="0.6875"/><stop stop-opacity="1" stop-color="rgb(6.698608%, 83.644104%, 78.970337%)" offset="0.703125"/><stop stop-opacity="1" stop-color="rgb(6.698608%, 83.560181%, 79.264832%)" offset="0.71875"/><stop stop-opacity="1" stop-color="rgb(6.698608%, 83.474731%, 79.5578%)" offset="0.734375"/><stop stop-opacity="1" stop-color="rgb(6.698608%, 83.390808%, 79.852295%)" offset="0.75"/><stop stop-opacity="1" stop-color="rgb(6.698608%, 83.306885%, 80.145264%)" offset="0.765625"/><stop stop-opacity="1" stop-color="rgb(6.698608%, 83.221436%, 80.439758%)" offset="0.78125"/><stop stop-opacity="1" stop-color="rgb(6.698608%, 83.137512%, 80.732727%)" offset="0.796875"/><stop stop-opacity="1" stop-color="rgb(6.698608%, 83.053589%, 81.027222%)" offset="0.8125"/><stop stop-opacity="1" stop-color="rgb(6.698608%, 82.969666%, 81.32019%)" offset="0.828125"/><stop stop-opacity="1" stop-color="rgb(6.698608%, 82.884216%, 81.614685%)" offset="0.84375"/><stop stop-opacity="1" stop-color="rgb(6.698608%, 82.800293%, 81.907654%)" offset="0.859375"/><stop stop-opacity="1" stop-color="rgb(6.698608%, 82.71637%, 82.202148%)" offset="0.875"/><stop stop-opacity="1" stop-color="rgb(6.698608%, 82.63092%, 82.495117%)" offset="0.890625"/><stop stop-opacity="1" stop-color="rgb(6.698608%, 82.546997%, 82.789612%)" offset="0.90625"/><stop stop-opacity="1" stop-color="rgb(6.698608%, 82.463074%, 83.082581%)" offset="0.921875"/><stop stop-opacity="1" stop-color="rgb(6.698608%, 82.37915%, 83.377075%)" offset="0.9375"/><stop stop-opacity="1" stop-color="rgb(6.698608%, 82.293701%, 83.670044%)" offset="0.953125"/><stop stop-opacity="1" stop-color="rgb(6.698608%, 82.209778%, 83.964539%)" offset="0.96875"/><stop stop-opacity="1" stop-color="rgb(6.698608%, 82.125854%, 84.257507%)" offset="0.984375"/><stop stop-opacity="1" stop-color="rgb(6.698608%, 82.040405%, 84.552002%)" offset="1"/></linearGradient></defs><g clip-path="url(#2a28729eba)"><rect x="-37.5" fill="url(#9ceb0314b2)" width="450" y="-37.499999" height="449.999989"/></g></svg>